<svg width="210" height="80" xmlns="http://www.w3.org/2000/svg">

 <g>
  <title>Layer 1</title>
  <text transform="rotate(-0.234034 105.181 43.3659) matrix(2.45075 0 0 3.13291 -163.196 -79.7172)" stroke="#000" xml:space="preserve" text-anchor="start" font-family="Noto Sans JP" font-size="24" id="svg_1" y="47.32241" x="74.02996" stroke-width="0" fill="#0d9393">Ваміко</text>
  <path stroke="#000" id="svg_6" d="m156.75919,11.84482c-0.21216,0 -0.32121,-0.11644 -0.32121,-0.25607c0,-0.11641 0.05452,-0.22943 0.21216,-0.22943c0.10905,0 0.27321,0.11302 0.32772,0.22943c0.10905,0.16949 0,0.25607 -0.21867,0.25607zm36.26601,6.64379c0.48538,0 0.59441,0.02986 0.32121,0.22941c-0.15764,0.13963 -0.48536,0.25604 -0.64301,0.25604c-0.16414,0 -0.32772,-0.11641 -0.32772,-0.25604c0,-0.14305 0.21869,-0.22941 0.64952,-0.22941zm-33.88719,-8.12686c-0.48536,-0.0565 -0.5399,-0.34259 0,-0.42897c0.27319,-0.0266 0.43085,0.05649 0.43085,0.22943c0,0.14304 -0.15766,0.22616 -0.43085,0.19953zm-6.05017,9.03787c0.64952,-0.08313 0.64952,-0.14288 0.43085,-0.33917c-0.16358,-0.14288 -0.2181,-0.31581 -0.10905,-0.37232c0.05452,-0.08653 0.32772,0 0.48536,0.16951c0.21867,0.22943 0.38224,0.25947 0.81309,0.11641c0.26728,-0.08637 0.48536,-0.14302 0.48536,-0.05649c0,0.05649 0.16416,0 0.37632,-0.11641c0.32774,-0.16951 0.38226,-0.54198 0.05453,-0.74153c-0.26669,-0.16951 -1.62025,-0.113 -1.99657,0.08637c-0.2181,0.14306 -0.38226,0.11318 -0.59441,-0.14286c-0.32772,-0.42573 -0.32772,-0.4855 0.43083,-0.5121c0.64952,0 0.64952,0 0.10905,-0.17293c-0.27261,-0.08313 -0.53988,-0.25604 -0.53988,-0.36906c0,-0.28607 0.75263,-0.45558 1.08035,-0.25603c0.10905,0.08311 0.32122,0.16951 0.5399,0.16951c0.43085,0 2.48785,-0.96756 2.48785,-1.16711c0,-0.08652 0.21275,-0.14301 0.43085,-0.08652c0.26727,0.03003 0.75265,-0.05649 1.24453,-0.19955c0.69752,-0.22941 0.69752,-0.25604 0.32121,-0.62836c-0.26669,-0.25604 -0.59441,-0.34259 -1.35298,-0.34259c-0.86168,0 -1.08035,0.05652 -1.34704,0.3991c-0.10964,0.22941 -0.43735,0.39892 -0.64952,0.39892c-0.37632,0 -0.48536,-0.25589 -0.10905,-0.39892c0.16356,-0.05652 0.27261,-0.25604 0.27261,-0.45559c0,-0.31256 -0.10905,-0.36906 -0.81309,-0.28592c-0.70404,0.05649 -0.70404,0.02986 -0.5399,-0.39912c0.10905,-0.25603 0.26669,-0.48545 0.37633,-0.51207c0.10905,-0.02986 0.21808,-0.28592 0.21808,-0.54196c0,-0.51213 0.3218,-0.59849 0.91681,-0.22943c0.2726,0.19954 0.43677,0.22943 0.53988,0.05649c0.10905,-0.113 0.49129,-0.13963 1.08629,-0.08314c0.80716,0.11302 0.86168,0.08314 0.75263,-0.25604c-0.05452,-0.19953 -0.10963,-0.42896 -0.16414,-0.48545c0,-0.0864 -0.26669,-0.19955 -0.58849,-0.28595c-0.64952,-0.14301 -0.81309,-0.48545 -0.21867,-0.48545c0.16416,0 0.32178,-0.05652 0.32178,-0.16969c0,-0.0864 0.32774,-0.14288 0.75857,-0.11643c0.59501,0.03003 0.91621,-0.0831 1.7293,-0.68156c0.59501,-0.42898 1.02584,-0.6584 1.08037,-0.54199c0.05452,0.14288 0.32772,0.226 0.59499,0.226c0.43085,0 0.48538,-0.08311 0.32774,-0.45543c-0.05511,-0.25606 -0.32774,-0.56859 -0.49188,-0.71165c-0.48538,-0.31594 -0.48538,-0.685 0,-0.57202c0.38224,0.11318 1.57164,-0.19937 1.57164,-0.39892c0,-0.08653 0.15824,-0.14304 0.37632,-0.14304c0.21869,0 0.3218,0.17292 0.3218,0.3991c0,0.28592 0.10905,0.39894 0.38226,0.3158c0.21216,-0.05976 0.37633,-0.22943 0.37633,-0.34243c0,-0.34261 1.72928,-0.94108 2.16011,-0.77142c0.16418,0.05653 0.32772,0 0.38287,-0.19953c0.15762,-0.3991 1.13428,-0.71165 1.56511,-0.5121c0.21869,0.08311 0.43086,0.05652 0.48597,-0.02986c0.10903,-0.11317 0.53988,-0.19955 1.02524,-0.2262c0.48536,-0.02986 1.13489,-0.14304 1.40809,-0.25945c1.02524,-0.36906 2.0511,-0.34244 2.48193,0.05669c0.27321,0.2859 0.38224,0.2859 0.38224,0.08635c0,-0.25606 0.21277,-0.28592 1.51122,-0.19953c2.05702,0.11317 2.37882,0.11317 3.13739,-0.02989c0.48536,-0.08313 0.64951,-0.05651 0.64951,0.1729c0,0.14306 0.15766,0.25607 0.37633,0.25607c0.16356,0 0.32121,-0.08314 0.32121,-0.16967c0,-0.22941 0.86821,-0.34243 1.62677,-0.22941c0.58849,0.11317 0.64301,0.14301 0.48536,0.91117c-0.05452,0.45885 0,0.7714 0.10313,0.7714c0.10903,0 0.21867,-0.19955 0.21867,-0.48547c0,-0.48222 0.59441,-0.68161 0.81309,-0.28593c0.05453,0.14289 0.21216,0.08638 0.32121,-0.13962c0.27322,-0.59865 0.86821,-0.2861 0.70404,0.36906c-0.16355,0.54196 -0.16355,0.54196 0.32182,0.34241c0.27319,-0.08638 0.48535,-0.31253 0.48535,-0.45543c0,-0.14305 0.16418,-0.31271 0.38227,-0.37248c0.43082,-0.11298 0.91679,0.31583 0.75855,0.62851c-0.05452,0.14291 -0.05452,0.25606 0.10311,0.25606c0.10964,0 0.21869,-0.08311 0.21869,-0.14304c0,-0.08313 0.26727,-0.11302 0.59499,-0.05649c0.70346,0.08638 0.80657,0.31578 0.21217,0.45541c-0.15764,0.05992 -0.3218,0.19955 -0.3218,0.31598c0,0.19955 0.10963,0.19955 0.70404,0c0.97073,-0.34243 1.40156,-0.31598 1.56573,0.05649c0.10903,0.19955 0.32178,0.28608 0.53988,0.19955c0.21867,-0.02988 0.70404,0.08653 1.08037,0.28592c0.32772,0.16966 0.81309,0.31256 1.03176,0.31256c0.3218,0 0.3218,0.14305 0.21216,0.54213c-0.10903,0.42898 -0.10903,0.48547 0.21869,0.31257c0.43083,-0.28269 0.59441,-0.25609 0.75265,0.14286c0.05452,0.19955 0.43676,0.34259 0.8676,0.42897c0.48536,0.05669 0.75265,0.19954 0.75265,0.36922c0,0.17292 0.16355,0.37232 0.32772,0.48549c0.43085,0.19953 0.32121,0.798 -0.16418,0.99754c-0.16355,0.05977 -0.3763,0.02989 -0.43083,-0.05649c-0.10903,-0.08655 -0.48536,-0.08655 -1.18942,0c-1.13489,0.19937 -1.34704,0.25604 -1.08035,0.51533c0.16416,0.16951 2.05168,0.11302 3.08286,-0.08653c0.3218,-0.08639 0.43085,0 0.43085,0.3991c0,0.2859 -0.10905,0.5121 -0.27261,0.5121c-0.10964,0 -0.21275,0.08637 -0.21275,0.22941c0,0.34257 0.26728,0.31253 0.97132,-0.0864c0.37572,-0.22941 0.5944,-0.28607 0.86168,-0.14301c0.27261,0.14301 0.32772,0.14301 0.32772,-0.0864c0,-0.1398 -0.10964,-0.25604 -0.27319,-0.25604c-0.10313,0 -0.21277,-0.11317 -0.21277,-0.2262c0,-0.14302 0.15824,-0.25604 0.37632,-0.25604c0.16416,0 0.38226,0.05649 0.38226,0.13963c0,0.08657 0.21275,0.19954 0.48596,0.22943c0.37574,0.08655 0.48536,0.19955 0.43083,0.54198c-0.10963,0.65512 0.10907,0.85469 0.91621,0.74168c0.38226,-0.05669 0.5944,0 0.43085,0.113c-0.04859,0.05649 0,0.19955 0.10905,0.25928c0.43735,0.16968 0.27319,0.56863 -0.21217,0.56863c-0.59499,0 -0.75857,0.14301 -0.43676,0.39908c0.21808,0.14304 0.38224,0.16951 0.5944,0.05651c0.49188,-0.28592 0.59501,-0.05651 0.64952,1.08412c0,0.57182 0.10905,1.02743 0.2181,1.02743c0.26727,0 0.16416,0.62851 -0.2181,0.88455c-0.21275,0.14288 -0.21275,0.2825 -0.05452,0.39892c0.38224,0.25607 0,0.9976 -0.48597,0.9976c-0.43082,0 -1.24392,0.54196 -1.24392,0.79802c0,0.31273 -0.69752,0 -0.86168,-0.34244c-0.16356,-0.31255 -0.16356,-0.31255 -0.27321,-0.08653c-0.10311,0.25946 0.48596,1.05748 0.97726,1.28363c0.32178,0.17294 -0.27321,0.45885 -0.70406,0.34244c-0.21869,-0.05649 -0.3218,-0.226 -0.3218,-0.39892c0,-0.48545 -1.35298,-1.70921 -2.37882,-2.16804c-0.5458,-0.2262 -1.03118,-0.48224 -1.03118,-0.56861c0,-0.17293 -1.72988,-0.71165 -2.7006,-0.88457c-0.54049,-0.08653 -0.70406,-0.0565 -0.70406,0.17292c0,0.16951 -0.10311,0.226 -0.3218,0.16951c-0.48536,-0.11302 -0.70404,0.14306 -0.27319,0.3991c0.59499,0.31255 0.49188,0.685 -0.15764,0.54196c-0.43677,-0.08638 -0.4913,-0.05652 -0.32772,0.42898c0.05452,0.28267 0.16416,0.65512 0.16416,0.82463c0,0.17293 0.10903,0.28595 0.21808,0.28595c0.15825,0 0.21275,-0.05652 0.10313,-0.14288c-0.05452,-0.08655 0.05513,-0.16967 0.27319,-0.16967c0.16418,0 0.3218,0.11316 0.3218,0.22616c0,0.11643 -0.21273,0.22941 -0.59499,0.19957c-0.32121,0 -0.59441,-0.08314 -0.59441,-0.13965c0,-0.25947 -1.45669,-2.02518 -1.88752,-2.28447c-0.48538,-0.28269 -0.16358,-0.36906 -3.99909,0.97094c-0.5944,0.19955 -1.24392,0.62851 -1.57164,0.94108c-0.26728,0.31253 -0.69812,0.62851 -0.91621,0.685c-0.21867,0.05652 -1.02584,0.5121 -1.72989,0.99757c-3.02834,2.138 -2.53646,2.39406 -2.32429,6.76022c0.91679,3.3085 0.91679,3.3085 0.91679,3.3085c-2.16072,0 -2.16072,0 -2.16072,0c-1.78382,0 -1.78382,0 -1.78382,0c0.16356,-3.05263 0.16356,-3.05263 0.16356,-3.05263c0.10903,-0.25587 0.16416,-0.77138 0.21869,-1.05732c0.05452,-0.16966 -1.51714,-0.91119 -1.46261,-1.08069c0,-0.14304 1.62617,0.25607 1.62617,0.113c0.26727,-2.08151 0,-3.73748 -0.70406,-4.61879c-0.16356,-0.54199 -1.51713,-2.2843 -1.72928,-2.2843c-0.05453,0 -0.43677,-0.16966 -0.81309,-0.36922c-0.64954,-0.3723 -0.91621,-0.39894 -4.53956,-0.5121c-3.89002,-0.11626 -3.89002,-0.11626 -3.89002,-0.11626c-0.92214,0.39894 -0.92214,0.39894 -0.92214,0.39894c-0.53988,0.25945 -1.08035,0.42897 -1.23801,0.42897c-0.32772,0 -1.68128,0.59862 -2.26977,0.94103c-0.05452,0 -0.10903,-0.02984 -0.10903,-0.05649c-0.05453,0 -0.05453,0 -0.05453,-0.02988c-0.05452,-0.08311 -0.10963,-0.16966 -0.21867,-0.25604c0.32772,-0.14304 0.59499,-0.22957 0.70404,-0.19953c0.16356,0.05649 0.3218,0 0.3218,-0.14306c0,-0.14288 -0.3218,-0.19954 -1.18348,-0.14288c-1.03178,0.0864 -1.29905,0.11626 -1.46261,0.45544c-0.26728,0.17292 -0.3218,0.42898 -0.16356,0.62853c-0.05513,0.25604 -0.05513,0.42896 0,0.42896c0.05452,0 0.10903,-0.05649 0.27261,-0.11641c0,0.02989 0.05452,0.05992 0.10963,0.08653c-0.54047,0.08638 -0.81368,0.34244 -0.75857,0.59848c-0.27319,0.11641 -0.54047,0.17292 -0.86818,0.25929c0,0 0,-0.02986 -0.04861,-0.02986c0.21275,-0.25604 0.3218,-0.54199 0.37632,-0.97095c0.10964,-0.48224 0.05452,-0.79802 -0.10903,-0.79802c-0.10905,0 -0.21867,0.11641 -0.21867,0.28589c0.0545,0.14306 -0.04861,0.28595 -0.26671,0.31257c-0.16416,0.02986 -0.27319,-0.02663 -0.27319,-0.16951c0,-0.34259 -0.21217,-0.34259 -0.69813,-0.03003c-0.21808,0.11641 -0.64893,0.25606 -1.02524,0.31598c-0.49188,0.08311 -0.64952,0.0266 -0.8682,-0.28595c-0.16356,-0.25604 -0.27261,-0.54213 -0.16356,-0.65514c0.05452,-0.14304 0.05452,-0.25929 -0.15764,-0.25929c-0.59501,0 -0.16416,-0.45561 0.53988,-0.54214zm4.64859,-6.55726c-0.32772,-0.02986 -0.59501,-0.113 -0.70404,-0.22941c-0.05453,-0.16966 -0.10905,-0.16966 -0.10905,0c0,0.11641 -0.21867,0.19955 -0.43085,0.22941c-0.38224,0 -0.38224,0.02988 0.05453,0.14306c0.26667,0.05649 0.53988,0.14286 0.5944,0.14286c0.04859,0 0.3218,-0.08637 0.59501,-0.14286c0.48536,-0.14306 0.48536,-0.14306 0,-0.14306zm42.85606,4.59216c0.10313,0.05652 0.21217,-0.03003 0.21217,-0.17292c0,-0.11316 -0.10905,-0.22618 -0.21217,-0.22618c-0.16414,0 -0.27319,0.05651 -0.27319,0.13963c0,0.08655 0.10905,0.20296 0.27319,0.25947zm-0.38224,0.25606c-0.05452,-0.08655 -0.3218,-0.19954 -0.54047,-0.19954c-0.15764,0 -0.26669,0.11299 -0.15764,0.19954c0.04859,0.08638 0.26727,0.14289 0.48536,0.14289c0.21275,0 0.26727,-0.05652 0.21275,-0.14289zm-0.48536,1.28347c0.16356,0 0.38224,-0.02986 0.38224,-0.05649c0,-0.05992 -0.21867,-0.11641 -0.38224,-0.17293c-0.21275,-0.05651 -0.37633,-0.02663 -0.37633,0.05652c0,0.08653 0.16358,0.1729 0.37633,0.1729zm0.43085,-2.71c0.21808,-0.05653 0.32771,-0.14305 0.27261,-0.2262c-0.16358,-0.20278 -1.07979,-0.20278 -1.07979,0c0,0.2262 0.32122,0.31257 0.80718,0.2262zm-2.96789,-2.1382c-0.27321,0.08655 -0.43677,0.25606 -0.38227,0.34259c0.27321,0.22603 0.59502,0.16951 0.86762,-0.19955c0.26728,-0.34259 0.15824,-0.39908 -0.48535,-0.14304zm-1.03178,4.39262c1.40808,0.76813 1.46261,0.79802 1.46261,0.54198c0,-0.14288 -0.10905,-0.25929 -0.27321,-0.25929c-0.15762,0 -0.43083,-0.14306 -0.5944,-0.31255c-0.15766,-0.16969 -0.48536,-0.34262 -0.75265,-0.34262c-0.49129,0 -0.49129,0.03004 0.15764,0.37248zm-1.13431,-1.34341c0.32715,0 0.48538,-0.05649 0.27263,-0.08312c-0.16356,-0.05651 -0.43085,-0.05651 -0.59441,0c-0.16418,0.02664 0,0.08312 0.32178,0.08312zm-1.56572,-3.87711c0.16356,0.0864 0.64893,0.1994 1.07976,0.25607c0.75859,0.08637 0.8131,0.08637 0.38226,-0.14304c-0.49129,-0.28269 -1.83833,-0.36906 -1.46202,-0.11303zm-3.29563,-4.73176c-0.16356,0.08311 -0.21808,0.25604 -0.16356,0.36904c0.10905,0.22943 0.43085,0.02989 0.43085,-0.31255c0,-0.17293 -0.05453,-0.19955 -0.26728,-0.05649zm1.62025,6.15832c0.43085,0.14287 0.59501,0.14287 0.8137,-0.05667c0.43083,-0.31256 0.15762,-0.45543 -0.64954,-0.25603c-0.64952,0.13978 -0.64952,0.13978 -0.16416,0.3127zm-1.07976,-1.42656c0.81309,-0.31252 0.81309,-0.31252 0.16356,-0.31252c-0.43677,0 -0.75857,0.11298 -0.92214,0.31252c-0.10313,0.1994 -0.21275,0.31257 -0.15824,0.31257c0,0 0.43085,-0.16968 0.91681,-0.31257zm-1.18942,4.62205c0.37572,0.31257 1.02526,0.31257 0.81309,-0.02988c-0.05452,-0.11316 -0.10963,-0.25604 -0.10963,-0.28608c0,-0.02663 -0.2181,-0.02663 -0.48536,0.03004c-0.43677,0.05651 -0.43677,0.14288 -0.2181,0.28592zm-1.67536,-1.17049c0.43083,0.31256 0.64952,0.34243 1.13489,0.11302c0.3218,-0.14288 0.3218,-0.14288 0,-0.16951c-0.16356,0 -0.59441,-0.03004 -0.97073,-0.08655c-0.54047,-0.113 -0.54047,-0.113 -0.16416,0.14304zm-0.05452,-3.10913c0.27319,0 0.59499,-0.45558 0.43085,-0.59847c-0.21217,-0.14304 -0.64895,0.08637 -0.64895,0.34243c0,0.14305 0.10905,0.25604 0.2181,0.25604zm-2.64551,1.93863c-0.32772,0.11641 -0.27319,0.14306 0.15766,0.14306c0.27319,0 0.5944,-0.05669 0.70404,-0.14306c0.16355,-0.22615 -0.37633,-0.22615 -0.8617,0zm0.05453,2.5105c0.04859,0.03004 0.21216,-0.02988 0.37632,-0.16951c0.16355,-0.11641 0.64895,-0.25945 1.02524,-0.31596c0.48536,-0.0864 0.70406,-0.22602 0.70406,-0.42898c0,-0.48204 -0.75857,-0.33918 -1.56575,0.28609c-0.32771,0.31581 -0.5944,0.57187 -0.53986,0.62836zm-0.59499,-1.31337c0.48535,-0.31253 0.48535,-0.36922 0.10309,-0.45559c-0.43083,-0.11302 -0.75204,0.14306 -0.75204,0.59848c-0.05511,0.34259 -0.05511,0.34259 0.64895,-0.14288zm-0.86762,-3.36516c0.05452,0.22941 0.16356,0.19954 0.48535,-0.22618c0.38227,-0.45544 0.38227,-0.51536 0.05453,-0.51536c-0.21216,0 -0.43085,0.0864 -0.48536,0.22944c-0.10905,0.11299 -0.10905,0.37247 -0.05452,0.5121zm-0.26728,-2.33758c0,0.11626 0.10311,0.39894 0.21275,0.59848c0.16356,0.3991 0.16356,0.3991 0.32772,0.05651c0.21216,-0.34241 0,-0.85451 -0.32772,-0.85451c-0.15824,0 -0.21275,0.08635 -0.21275,0.19953zm-3.78632,0.9409c-0.26727,0.19955 -0.26727,0.3991 -0.05511,0.99757c0.10964,0.42897 0.38285,0.85794 0.54047,0.94108c0.27321,0.14304 0.32772,0 0.38224,-0.88442c0,-1.08071 -0.27319,-1.42328 -0.8676,-1.05424zm0.48536,3.02275c0.05453,0.05652 0.16356,-0.05651 0.10905,-0.22617c0,-0.17293 -0.05452,-0.19955 -0.16356,-0.08638c-0.04861,0.113 -0.04861,0.25604 0.05452,0.31255zm1.94797,-2.68016c-0.05452,0.05652 -0.05452,0.45561 0.10905,0.88442c0.16416,0.74168 0.21275,0.77155 0.26728,0.22957c0.05452,-0.88457 -0.05453,-1.31353 -0.37633,-1.11398zm-1.83893,8.04372c0.32772,-0.34259 0.86762,-0.91446 1.24394,-1.25702c0.43083,-0.36909 0.70404,-0.85453 0.81309,-1.34001c0.15824,-0.76816 0.15824,-0.76816 0.15824,-0.76816c-0.64952,0.42572 -0.64952,0.42572 -0.64952,0.42572c-0.3218,0.22943 -0.5399,0.48547 -0.5399,0.57187c0,0.22616 -1.02584,1.65269 -1.34764,1.90875c-0.16356,0.14286 -0.43677,0.45885 -0.48536,0.685c-0.27321,0.655 0.21275,0.54198 0.80716,-0.22615zm-3.83551,2.9362c0.16416,0.56859 0.16416,0.56859 0.70406,-0.65514c0.3218,-0.65841 0.80716,-1.71245 1.13489,-2.3676c0.43083,-0.82791 0.59499,-1.51291 0.59499,-2.48059c0,-1.25689 -0.05511,-1.28352 -0.48594,-1.14046c-0.97667,0.36905 -1.51714,1.39649 -1.73524,3.3916c-0.10311,1.02763 -0.21275,2.05507 -0.32178,2.28124c-0.05453,0.22941 0,0.65839 0.10903,0.97095zm0.10964,-7.29896c0.21216,0.28268 0.43085,0.5121 0.43085,0.5121c0.05452,0 0.32119,-0.17293 0.53988,-0.39908c0.27319,-0.19939 0.70404,-0.4288 0.86762,-0.51195c0.64358,-0.25945 0.80715,-1.05747 0.26727,-1.59945c-0.43085,-0.48547 -1.62025,-1.02761 -1.83894,-0.85469c-0.10903,0.05651 -0.26667,0.59865 -0.37632,1.227c-0.21808,0.94106 -0.21808,1.22713 0.10964,1.62605zm-0.32772,-6.53077c0.10905,0.05667 0.21808,0.02663 0.21808,-0.05974c0,-0.11317 -0.10903,-0.2262 -0.21808,-0.28269c-0.16416,-0.05991 -0.26728,-0.02988 -0.26728,0.08314c0,0.08638 0.10313,0.19955 0.26728,0.25929zm-17.50808,7.66797c0.75263,0.03003 0.75263,0.03003 0.75263,0.03003c0.75857,0 1.51714,-0.36922 1.51714,-0.685c0,-0.19955 -0.05452,-0.19955 -2.26977,0.65496zm0.3218,-0.79803c0,0.08658 0.10905,0.17293 0.27321,0.17293c0.26669,0 1.02524,-0.5121 0.86168,-0.59847c-0.16416,-0.11641 -1.13489,0.25603 -1.13489,0.42554zm0.59499,-1.96523c0.8131,0.56874 1.18942,0.62525 1.62025,0.25603c0.43677,-0.34241 0.05453,-0.57184 -1.24451,-0.65498c-1.07978,-0.08655 -1.07978,-0.08655 -0.37574,0.39895zm-0.59499,-1.5993c0,0.05974 0.38224,0.19937 0.81309,0.31578c1.99658,0.54199 2.37882,0.54199 2.32429,0.02665c0,-0.31257 -0.81309,-0.99759 -1.13489,-0.99759c-0.38224,0 -2.00249,0.54198 -2.00249,0.65515zm2.9193,4.05003c0.59441,0 0.64893,-0.0864 0.16356,-0.22603c-0.21867,-0.03003 -0.43085,0 -0.48536,0.08314c-0.10964,0.08635 0.05452,0.14288 0.3218,0.14288zm0.43085,-6.70031c-0.37633,-0.14305 -0.86229,-0.19954 -1.08037,-0.14305c-0.37632,0.11317 -0.3218,0.14305 0.21808,0.22941c0.26728,0.05669 0.8137,0.11318 1.08037,0.13981c0.3218,0 0.3218,-0.05667 -0.21808,-0.22616zm-0.04859,1.02743c0.32119,0 0.37632,-0.02988 0.15764,-0.11626c-0.15764,-0.02661 -0.37633,-0.02661 -0.48538,0.02989c-0.05452,0.05649 0.10905,0.11302 0.32774,0.08637zm0.32119,0.65516c-0.75855,0 -0.75855,0.0266 -0.32119,0.25603c0.53988,0.25604 0.69752,0.2859 0.91621,0.113c0.3763,-0.22603 0.10903,-0.36904 -0.59502,-0.36904zm1.08039,-3.22215c-0.21869,-0.14304 -0.27321,0.11302 -0.16358,0.42557c0.05452,0.19955 0.27261,0.37245 0.38226,0.37245c0.21216,0 0.05452,-0.62851 -0.21867,-0.79802zm1.72928,3.76408c-0.10903,0.02665 0.16416,0.19955 0.48596,0.34261c0.32772,0.14288 0.5944,0.19938 0.5944,0.113c0,-0.19953 -0.9162,-0.57199 -1.08035,-0.45561zm-1.35298,0.19955c-0.48536,0.19957 -0.21216,0.71164 0.4913,0.79804c0.37632,0.0565 0.97132,0.28593 1.34764,0.51208c0.32772,0.22943 0.5944,0.31598 0.5944,0.22943c0,-0.28592 -2.16013,-1.65596 -2.43334,-1.53955zm2.21526,2.36763c-0.32178,-0.45902 -0.69812,-0.68504 -1.40217,-0.82808c-0.53988,-0.113 -1.08035,-0.1729 -1.24392,-0.14287c-0.16416,0.02986 0.48536,0.39892 1.40809,0.82789c1.72928,0.74153 1.72928,0.74153 1.238,0.14305zm2.87011,-4.39264c-0.10905,0 -0.21869,0.11302 -0.21869,0.22603c0,0.14304 0.10964,0.22943 0.21869,0.22943c0.15764,0 0.26728,-0.0864 0.26728,-0.22943c0,-0.113 -0.10964,-0.22603 -0.26728,-0.22603zm-0.49129,2.33758c0,0.19953 0.92214,0.05651 1.29845,-0.19955c0.5399,-0.42896 0.48536,-0.54198 -0.21867,-0.54198c-0.48536,0 -1.07978,0.39911 -1.07978,0.74153zm1.57166,-6.15835c-0.16416,0.36906 -0.27321,0.68161 -0.21867,0.71165c0.16414,0.11302 0.59501,-0.74151 0.59501,-1.0841c0,-0.14288 -0.16418,0.03004 -0.37633,0.37245zm2.80967,5.75924c-0.27321,0 -0.48538,0.05669 -0.48538,0.16966c0,0.0864 0.15764,0.14306 0.32121,0.14306c0.21867,0 0.43085,-0.05667 0.48596,-0.14306c0.10905,-0.11298 -0.05511,-0.16966 -0.32178,-0.16966zm-0.64954,5.3603c0.3218,0.51552 0.80716,0.99757 1.08037,1.11398c0.27321,0.0864 0.81309,0.48549 1.13489,0.88457c0.3218,0.39894 0.64952,0.7115 0.70406,0.7115c0.26667,0 -0.27321,-2.6235 -0.64952,-3.42167c-0.32774,-0.68484 -0.43086,-1.31337 -0.37633,-2.31094c0.04859,-0.74151 0,-1.39667 -0.10903,-1.45316c-0.05453,-0.05651 -0.43085,-0.05651 -0.75857,0c-0.59501,0.113 -0.64952,0.19955 -0.64952,0.82806c0,0.48207 -0.10907,0.74153 -0.37633,0.85451c-0.75855,0.25607 -0.70404,1.70922 0,2.79316zm-1.56572,-3.82059c-0.10905,-0.42897 -0.21808,-0.48547 -0.81309,-0.48547c-0.70406,0 -0.70406,0.02988 -0.64952,0.62836c0,0.36922 0.10963,0.79817 0.16414,0.99756c0.05453,0.19955 0.26728,0.39908 0.48538,0.42897c0.43083,0.14305 0.9162,-0.85451 0.81309,-1.56941zm-0.81309,2.87953c-0.48538,-0.34244 -0.81309,-0.7115 -0.8617,-0.79802c0,-0.113 -0.27319,-0.39892 -0.59441,-0.65498c-0.32772,-0.25604 -0.70404,-0.572 -0.8682,-0.68503c-0.53988,-0.39908 -0.43085,-0.05649 0.16416,0.82791c0.37632,0.59862 1.02526,1.14061 1.78382,1.59619c1.40215,0.77139 1.56573,0.62838 0.37633,-0.28607zm-0.8617,1.3999c0.58849,0 0.5399,-0.02986 -0.27319,-0.48545c-0.5399,-0.28595 -0.91621,-0.59849 -0.91621,-0.74154c0,-0.11299 -0.70406,-0.51535 -1.51713,-0.88442c-0.80718,-0.37244 -1.56575,-0.7415 -1.67478,-0.85466c-0.10964,-0.14288 -0.16416,-0.14288 -0.16416,0.02663c0,0.17293 -0.26669,0.19953 -1.13489,0.113c-0.59441,-0.05652 -1.07978,-0.05652 -1.07978,-0.02647c0,0.05651 0.21808,0.39894 0.43677,0.7415c0.37633,0.56861 0.53988,0.68504 1.7293,0.91105c0.75265,0.14304 1.94203,0.48546 2.7006,0.7415c0.70406,0.25947 1.56573,0.45885 1.89346,0.45885zm-8.43549,0.96768c0.21867,0 0.54047,-0.05649 0.75855,-0.14301c0.37633,-0.1994 0.05513,-0.1994 -0.64893,0c-0.3218,0.08652 -0.37632,0.11315 -0.10963,0.14301zm-0.59441,-0.71164c0.5399,-0.11624 2.26977,-0.22941 3.84143,-0.22941c2.96731,-0.02663 3.5623,-0.11298 2.37288,-0.28592c-0.3763,-0.05649 -1.238,-0.19955 -1.94203,-0.34244c-1.24394,-0.25604 -3.78692,-0.16966 -4.0536,0.11628c-0.05511,0.05664 -0.32772,0.08652 -0.59499,0.05664c-0.5399,-0.08653 -1.08037,0.1429 -1.24394,0.59849c-0.21867,0.36904 0.16356,0.39908 1.62025,0.08635zm-4.32087,0.65515c0.10905,0.22943 0.64952,0.25604 1.08037,0.05649c0.26667,-0.11299 0.26667,-0.16948 0,-0.34241c-0.21867,-0.16969 -0.37632,-0.16969 -0.70404,-0.02663c-0.21867,0.08314 -0.37633,0.22603 -0.37633,0.31255zm-1.7293,1.99514c0.21217,0 0.32122,0.0864 0.21217,0.25606c-0.04861,0.11641 -0.21217,0.22941 -0.3218,0.22941c-0.16356,0 -0.26669,-0.113 -0.26669,-0.22941c0,-0.13963 0.15764,-0.25606 0.37632,-0.25606z" stroke-width="0" fill="#0d9393"/>
 </g>
</svg>