<?xml version="1.0" standalone="no"?>
<!DOCTYPE svg PUBLIC "-//W3C//DTD SVG 20010904//EN"
 "http://www.w3.org/TR/2001/REC-SVG-20010904/DTD/svg10.dtd">
<svg version="1.0" xmlns="http://www.w3.org/2000/svg"
 width="2481.000000pt" height="2481.000000pt" viewBox="0 0 2481.000000 2481.000000"
 preserveAspectRatio="xMidYMid meet">
<metadata>
Created by potrace 1.16, written by Peter Selinger 2001-2019
</metadata>
<g transform="translate(0.000000,2481.000000) scale(0.100000,-0.100000)"
fill="#000000" stroke="none">
<path d="M12325 11910 c-49 -4 -134 -13 -187 -20 l-98 -12 0 -1029 0 -1029
185 0 185 0 0 426 0 426 153 -4 c132 -3 158 -6 202 -26 120 -55 161 -132 239
-453 31 -125 67 -259 82 -298 l26 -71 194 0 c107 0 194 2 194 3 0 2 -9 30 -20
63 -12 32 -52 181 -91 329 -80 308 -119 404 -198 488 -28 29 -71 63 -96 76
l-46 23 73 36 c144 71 257 213 294 369 19 79 14 228 -10 306 -71 229 -264 360
-582 397 -100 11 -362 11 -499 0z m471 -294 c74 -20 151 -64 185 -107 50 -64
63 -105 63 -209 1 -84 -2 -101 -27 -152 -71 -144 -195 -198 -460 -198 l-147 0
2 333 3 332 35 6 c69 12 294 9 346 -5z"/>
<path d="M7620 11885 c0 -24 -129 -1944 -134 -2007 l-6 -58 180 0 180 0 0 29
c0 16 11 229 25 473 21 374 53 1068 55 1188 1 19 36 -104 80 -275 84 -333 101
-391 290 -997 l125 -398 142 0 143 0 13 33 c37 89 444 1317 491 1482 31 105
56 179 56 165 9 -380 47 -1317 66 -1602 l6 -98 185 0 185 0 -6 83 c-5 66 -116
1971 -116 1991 0 3 -111 6 -247 6 l-248 0 -84 -243 c-238 -691 -307 -908 -376
-1187 -14 -58 -28 -112 -31 -120 -3 -8 -32 89 -64 215 -73 289 -118 442 -278
935 l-128 395 -252 3 c-219 2 -252 0 -252 -13z"/>
<path d="M10516 11668 c-222 -691 -586 -1832 -586 -1839 0 -5 87 -9 193 -9
l194 0 51 168 c28 92 68 224 89 294 l38 128 330 0 330 0 47 -148 c25 -81 68
-213 93 -294 l47 -148 205 0 c167 0 204 2 200 13 -3 8 -155 476 -338 1040
l-333 1027 -243 0 -242 0 -75 -232z m348 -236 c21 -79 79 -275 130 -435 l93
-292 -260 -3 c-143 -1 -261 -1 -263 1 -2 1 37 131 85 287 49 157 106 356 127
442 21 87 41 154 45 150 3 -4 23 -71 43 -150z"/>
<path d="M13620 11740 l0 -160 295 0 295 0 0 -880 0 -880 190 0 190 0 0 880 0
880 300 0 300 0 0 160 0 160 -785 0 -785 0 0 -160z"/>
<path d="M15290 11893 c0 -5 146 -278 325 -607 l325 -600 0 -433 0 -433 190 0
190 0 0 438 0 438 344 599 345 600 -211 3 c-117 1 -215 -1 -219 -5 -12 -14
-345 -735 -385 -835 -21 -54 -42 -98 -46 -98 -4 0 -10 10 -14 23 -11 36 -143
331 -283 632 l-130 280 -215 3 c-119 1 -216 -1 -216 -5z"/>
<path d="M17210 10860 l0 -1040 175 0 175 0 0 548 c0 301 -5 666 -10 811 -6
145 -8 266 -6 268 2 3 24 -37 47 -89 114 -248 228 -455 634 -1146 l230 -392
198 0 197 0 0 1040 0 1040 -175 0 -175 0 0 -517 c0 -459 8 -749 25 -993 l5
-75 -27 60 c-14 33 -75 157 -134 275 -95 189 -188 351 -624 1082 l-100 167
-217 1 -218 0 0 -1040z"/>
<path d="M14397 9587 c10 -13 50 -60 88 -105 l70 -81 90 0 90 0 87 102 86 102
-81 3 c-70 2 -84 0 -97 -16 -8 -10 -31 -37 -50 -60 l-35 -41 -50 59 -50 60
-83 0 -83 0 18 -23z"/>
<path d="M13550 9523 c-30 -42 -63 -89 -73 -105 l-19 -28 89 0 88 1 110 104
110 105 -125 -1 -125 0 -55 -76z"/>
<path d="M18373 9501 c-40 -55 -73 -102 -73 -105 0 -3 39 -6 88 -6 l87 0 107
105 106 105 -121 0 -122 0 -72 -99z"/>
<path d="M15548 9335 c-127 -32 -210 -93 -258 -187 -26 -53 -30 -72 -30 -140
0 -127 41 -201 154 -276 40 -26 101 -59 136 -72 103 -37 175 -76 203 -110 69
-81 48 -192 -46 -242 -36 -20 -56 -23 -142 -22 -83 0 -113 5 -175 28 -41 15
-82 30 -91 32 -12 4 -21 -12 -39 -82 -28 -104 -30 -101 93 -134 212 -57 431
-26 559 80 86 71 129 233 94 353 -33 113 -119 188 -306 267 -131 54 -175 82
-200 123 -40 64 -14 148 58 190 65 38 217 32 319 -13 l43 -19 25 81 c18 60 22
85 14 95 -39 47 -297 77 -411 48z"/>
<path d="M8935 9330 c-43 -5 -85 -12 -92 -14 -10 -4 -13 -122 -13 -601 l0
-595 110 0 110 0 0 250 0 250 68 0 c162 0 219 -52 263 -237 11 -49 32 -127 46
-175 l26 -88 115 0 c105 0 114 1 107 18 -3 9 -27 94 -51 187 -66 248 -87 295
-162 345 l-39 26 55 29 c110 58 170 175 159 308 -13 150 -91 238 -252 284 -61
18 -337 25 -450 13z m386 -188 c63 -33 99 -90 99 -158 0 -58 -14 -92 -58 -137
-47 -48 -110 -67 -224 -67 l-88 0 0 188 c0 104 3 192 7 195 3 4 52 7 109 7 92
0 107 -3 155 -28z"/>
<path d="M14375 9330 c-43 -5 -85 -12 -92 -14 -10 -4 -13 -122 -13 -601 l0
-595 110 0 110 0 0 250 0 250 68 0 c162 0 219 -52 263 -237 11 -49 32 -127 46
-175 l26 -88 115 0 c105 0 114 1 107 18 -3 9 -27 94 -51 187 -66 248 -87 295
-162 345 l-39 26 55 29 c110 58 170 175 159 308 -13 150 -91 238 -252 284 -61
18 -337 25 -450 13z m386 -188 c63 -33 99 -90 99 -158 0 -58 -14 -92 -58 -137
-47 -48 -110 -67 -224 -67 l-88 0 0 188 c0 104 3 192 7 195 3 4 52 7 109 7 92
0 107 -3 155 -28z"/>
<path d="M7780 9240 l0 -90 170 0 170 0 0 -515 0 -515 110 0 110 0 0 515 0
515 175 0 175 0 0 90 0 90 -455 0 -455 0 0 -90z"/>
<path d="M9840 8943 c0 -214 4 -415 10 -447 32 -197 116 -312 268 -369 76 -28
268 -31 353 -4 125 38 225 134 268 258 35 100 41 175 41 567 l0 382 -109 0
-110 0 -3 -417 c-3 -370 -6 -423 -21 -463 -49 -124 -123 -175 -247 -168 -57 3
-77 9 -112 34 -50 35 -93 112 -108 193 -6 30 -10 225 -10 437 l0 384 -110 0
-110 0 0 -387z"/>
<path d="M11030 8725 l0 -605 110 0 110 0 0 265 0 265 255 0 255 0 0 -265 0
-265 110 0 110 0 0 605 0 605 -110 0 -110 0 0 -245 0 -245 -255 0 -255 0 0
245 0 245 -110 0 -110 0 0 -605z"/>
<path d="M12240 8725 l0 -605 360 0 360 0 0 90 0 90 -250 0 -250 0 0 515 0
515 -110 0 -110 0 0 -605z"/>
<path d="M13236 8737 c-104 -325 -191 -598 -193 -604 -4 -10 23 -13 110 -13
l115 0 25 83 c14 45 37 121 52 170 l26 87 193 0 193 0 12 -42 c7 -24 31 -100
53 -170 l41 -128 120 0 c91 0 118 3 114 13 -4 10 -143 440 -348 1075 l-40 122
-142 0 -142 0 -189 -593z m348 327 c10 -42 43 -153 72 -246 30 -93 54 -173 54
-179 0 -5 -63 -9 -151 -9 -139 0 -150 1 -145 18 59 189 107 353 122 415 10 42
21 77 24 77 3 0 14 -34 24 -76z"/>
<path d="M16110 9240 l0 -90 170 0 170 0 0 -515 0 -515 110 0 110 0 0 515 0
515 175 0 175 0 0 90 0 90 -455 0 -455 0 0 -90z"/>
<path d="M17104 9313 c4 -10 91 -281 195 -603 l189 -585 129 -3 128 -2 205
596 c113 328 207 600 208 605 2 5 -50 9 -115 9 l-119 0 -107 -337 c-58 -186
-122 -396 -142 -468 -20 -71 -40 -141 -44 -155 -6 -20 -13 -2 -35 88 -16 61
-79 282 -141 489 l-113 378 -122 3 c-113 2 -121 1 -116 -15z"/>
<path d="M18300 8725 l0 -605 110 0 110 0 0 605 0 605 -110 0 -110 0 0 -605z"/>
</g>
</svg>
