<?xml version="1.0" encoding="utf-8"?>
<!-- Generator: Adobe Illustrator 22.0.0, SVG Export Plug-In . SVG Version: 6.00 Build 0)  -->
<svg version="1.1" id="Layer_1" xmlns="http://www.w3.org/2000/svg" xmlns:xlink="http://www.w3.org/1999/xlink" x="0px" y="0px"
	 viewBox="0 0 595.3 595.3" style="enable-background:new 0 0 595.3 595.3;" xml:space="preserve">
<style type="text/css">
	.Arched_x0020_Green{fill:url(#SVGID_1_);stroke:#FFFFFF;stroke-width:0.25;stroke-miterlimit:1;}
	.st0{fill:none;stroke:#F6B428;stroke-width:4.5;stroke-miterlimit:10;}
	.st1{fill:none;stroke:#F6B428;stroke-width:2.2;stroke-miterlimit:10;}
	.st2{fill:#212222;}
	.st3{fill:#F6B428;}
	.st4{fill:none;stroke:#FFFFFF;stroke-width:1.6234;stroke-linecap:round;}
	.st5{fill:none;stroke:#FFFFFF;stroke-width:1.6349;stroke-linecap:round;}
	.st6{fill:none;stroke:#FFFFFF;stroke-width:2.0694;}
	.st7{fill:#FFFFFF;}
</style>
<linearGradient id="SVGID_1_" gradientUnits="userSpaceOnUse" x1="0" y1="595.2803" x2="0.7071" y2="594.5732">
	<stop  offset="0" style="stop-color:#1EAB4B"/>
	<stop  offset="0.9831" style="stop-color:#19361A"/>
</linearGradient>
<path class="st0" d="M530,399v-93c-0.2,0-0.4,0-0.7,0c-6.8,0-12.3-7.1-12.3-15.8c0-0.3,0-0.6,0-0.9H77.6c0,0.4,0.1,0.8,0.1,1.3
	c0,8.7-5.5,15.8-12.3,15.8c0,0,0,0,0,0l0,92.6c0.2,0,0.4,0,0.7,0c6.8,0,12.3,7.1,12.3,15.8h439.3C517.6,406.1,523.2,399,530,399z"/>
<path class="st1" d="M525,394.2v-83.5c-0.2,0-0.4,0-0.6,0c-6.6,0-12-6.3-12-14.2c0-0.3,0-0.5,0-0.8H84.3c0,0.4,0,0.8,0,1.1
	c0,7.8-5.4,14.2-12,14.2c0,0,0,0,0,0v83.1c0.2,0,0.4,0,0.7,0c6.6,0,12,6.3,12,14.2h428C513,400.6,518.4,394.3,525,394.2z"/>
<g>
	<path class="st2" d="M202.7,336.5c-0.3-6.4-0.7-14.1-0.6-20.9h-0.2c-1.6,6.1-3.7,12.8-5.9,19.1l-7.3,21.6h-7l-6.7-21.3
		c-1.9-6.4-3.7-13.2-5-19.4h-0.1c-0.2,6.5-0.5,14.4-0.9,21.2l-1.1,20.1h-8.5l3.3-49.9h12l6.5,20.1c1.8,5.8,3.3,11.8,4.6,17.3h0.2
		c1.3-5.4,3-11.5,5-17.4l6.9-20h11.8l2.9,49.9h-8.9L202.7,336.5z"/>
	<path class="st2" d="M231.3,342.7l-4.3,14.1h-9.4l16-49.9h11.6l16.2,49.9h-9.8l-4.5-14.1H231.3z M245.6,335.8l-3.9-12.3
		c-1-3-1.8-6.4-2.5-9.3H239c-0.7,2.9-1.5,6.4-2.4,9.3l-3.8,12.3H245.6z"/>
	<path class="st2" d="M268.4,307.7c3.5-0.7,8.5-1.1,13.8-1.1c7.2,0,12,1.2,15.4,4c2.7,2.3,4.3,5.8,4.3,10.1c0,6.4-4.4,10.8-9.1,12.4
		v0.2c3.6,1.3,5.8,4.8,7,9.6c1.6,6.2,3,12,3.9,13.9h-9.3c-0.7-1.5-2-5.6-3.3-11.8c-1.5-6.5-3.8-8.6-9-8.7h-4.6v20.5h-9V307.7z
		 M277.4,329.7h5.4c6.1,0,9.9-3.3,9.9-8.2c0-5.4-3.8-8-9.7-8c-2.9,0-4.7,0.2-5.6,0.4V329.7z"/>
	<path class="st2" d="M320.4,314.6h-14.2V307h37.7v7.6h-14.4v42.3h-9.1V314.6z"/>
	<path class="st2" d="M362.2,356.8V336L346.5,307h10.4l5.9,12.8c1.7,3.7,3,6.5,4.4,9.9h0.1c1.2-3.2,2.6-6.3,4.3-9.9l6-12.8h10.3
		l-16.6,28.9v21H362.2z"/>
	<path class="st2" d="M392.4,356.8V307h10.4l12.9,21.4c3.3,5.6,6.2,11.3,8.5,16.7l0.1-0.1c-0.7-6.6-0.8-13-0.8-20.6V307h8.4v49.9
		h-9.5l-13-22c-3.2-5.5-6.4-11.5-8.9-17.2l-0.3,0.1c0.4,6.4,0.5,13,0.5,21.2v17.8H392.4z"/>
	<path class="st2" d="M174.3,373.3h-8.3v-4.4h21.9v4.4h-8.3v24.6h-5.3V373.3z"/>
	<path class="st2" d="M191.3,369.3c2-0.4,4.9-0.6,8-0.6c4.2,0,7,0.7,8.9,2.3c1.6,1.3,2.5,3.4,2.5,5.8c0,3.7-2.5,6.3-5.3,7.2v0.1
		c2.1,0.8,3.4,2.8,4,5.6c0.9,3.6,1.7,7,2.3,8.1h-5.4c-0.4-0.9-1.2-3.2-1.9-6.8c-0.9-3.8-2.2-5-5.2-5.1h-2.7v11.9h-5.2V369.3z
		 M196.6,382.1h3.1c3.6,0,5.8-1.9,5.8-4.8c0-3.1-2.2-4.6-5.6-4.6c-1.7,0-2.8,0.1-3.3,0.3V382.1z"/>
	<path class="st2" d="M220.9,368.9v16.9c0,5.7,2.4,8.3,5.9,8.3c3.8,0,6.1-2.6,6.1-8.3v-16.9h5.3v16.6c0,8.9-4.6,12.9-11.6,12.9
		c-6.7,0-11.1-3.7-11.1-12.9v-16.6H220.9z"/>
	<path class="st2" d="M249.6,368.9v11.6h12.3v-11.6h5.3v29h-5.3v-12.8h-12.3v12.8h-5.3v-29H249.6z"/>
	<path class="st2" d="M273.2,368.9h5.3v24.6h11.9v4.4h-17.2V368.9z"/>
	<path class="st2" d="M300.3,389.6l-2.5,8.2h-5.5l9.3-29h6.8l9.4,29h-5.7l-2.6-8.2H300.3z M308.6,385.6l-2.3-7.1
		c-0.6-1.8-1-3.7-1.5-5.4h-0.1c-0.4,1.7-0.9,3.7-1.4,5.4l-2.2,7.1H308.6z M312,362.2l-5.4,5.2h-4.3l3.8-5.2H312z"/>
	<path class="st2" d="M321.9,369.3c2-0.4,4.9-0.6,8-0.6c4.2,0,7,0.7,8.9,2.3c1.6,1.3,2.5,3.4,2.5,5.8c0,3.7-2.5,6.3-5.3,7.2v0.1
		c2.1,0.8,3.4,2.8,4,5.6c0.9,3.6,1.7,7,2.3,8.1h-5.4c-0.4-0.9-1.2-3.2-1.9-6.8c-0.9-3.8-2.2-5-5.2-5.1h-2.7v11.9h-5.2V369.3z
		 M328.9,367.2l-4.4-5.1h4l2.5,2.8h0.1l2.4-2.8h3.9l-4.3,5.1H328.9z M327.1,382.1h3.1c3.6,0,5.8-1.9,5.8-4.8c0-3.1-2.2-4.6-5.6-4.6
		c-1.7,0-2.8,0.1-3.3,0.3V382.1z"/>
	<path class="st2" d="M346.3,392.1c1.7,1,4.3,1.8,7,1.8c3.4,0,5.2-1.6,5.2-4c0-2.2-1.5-3.5-5.1-4.8c-4.8-1.7-7.9-4.3-7.9-8.4
		c0-4.8,4-8.3,10.3-8.3c3.1,0,5.4,0.7,6.9,1.4l-1.2,4.3c-1.1-0.6-3.1-1.4-5.8-1.4c-3.4,0-4.8,1.8-4.8,3.5c0,2.2,1.7,3.3,5.5,4.7
		c5,1.9,7.4,4.5,7.4,8.6c0,4.7-3.5,8.7-11,8.7c-3.1,0-6.3-0.9-7.9-1.8L346.3,392.1z"/>
	<path class="st2" d="M374.2,373.3H366v-4.4h21.9v4.4h-8.3v24.6h-5.3V373.3z"/>
	<path class="st2" d="M399.3,397.8l-9.4-29h5.8l4,13.2c1.1,3.7,2.1,7.1,2.8,10.5h0.1c0.8-3.4,1.8-7,3-10.5l4.2-13.2h5.6l-10,29
		H399.3z"/>
	<path class="st2" d="M428,362.2l-5.4,5.2h-4.3l3.8-5.2H428z M423.8,368.9v29h-5.3v-29H423.8z"/>
</g>
<g>
	<path class="st3" d="M94.5,317.5c0.8-0.8,1.3-2,1.3-3.2c0-2.6-2.1-4.6-4.6-4.6c-1.2,0-2.4,0.5-3.2,1.3L94.5,317.5z"/>
	<path class="st3" d="M87.4,311.5c-0.6,0.8-0.9,1.7-0.9,2.8c0,2.6,2.1,4.6,4.6,4.6c1,0,2-0.3,2.8-0.9L87.4,311.5z"/>
</g>
<g>
	<path class="st3" d="M96.1,392.5c0.4-1.1,0.5-2.3,0-3.4c-0.9-2.4-3.6-3.6-6-2.6c-1.2,0.5-2,1.3-2.5,2.4L96.1,392.5z"/>
	<path class="st3" d="M87.3,389.5c-0.2,0.9-0.2,1.9,0.2,2.9c0.9,2.4,3.6,3.6,6,2.6c1-0.4,1.7-1,2.2-1.8L87.3,389.5z"/>
</g>
<g>
	<path class="st3" d="M503.1,318.1c1,0.5,2.2,0.7,3.4,0.3c2.5-0.7,3.8-3.3,3.1-5.8c-0.4-1.2-1.2-2.1-2.2-2.7L503.1,318.1z"/>
	<path class="st3" d="M506.7,309.6c-0.9-0.3-1.9-0.4-2.9-0.1c-2.5,0.7-3.8,3.3-3.1,5.8c0.3,1,0.9,1.8,1.7,2.4L506.7,309.6z"/>
</g>
<g>
	<path class="st3" d="M508.7,394c0.9-0.7,1.6-1.7,1.7-3c0.4-2.5-1.4-4.9-3.9-5.3c-1.2-0.2-2.4,0.1-3.4,0.8L508.7,394z"/>
	<path class="st3" d="M502.5,387.1c-0.7,0.7-1.2,1.6-1.3,2.6c-0.4,2.5,1.4,4.9,3.9,5.3c1,0.2,2,0,2.9-0.5L502.5,387.1z"/>
</g>
<g>
	<path class="st3" d="M435.9,415.7c0.4-0.4,0.7-0.9,1.1-1.3H156.1c0.4,0.5,0.7,0.9,1.1,1.3H435.9z"/>
	<path class="st3" d="M321.8,435.1c-2,0-3.4,1.8-3.4,4.3c0,2.1,1.2,3.8,3.4,3.8c1.6,0,2.8-0.8,3.4-1.7c0.1-0.3,0.2-0.6,0.2-1.2
		C325.4,437.5,324.3,435.1,321.8,435.1z"/>
	<path class="st3" d="M160.5,419.7c32.8,38.3,81.6,62.7,136,62.7c54.4,0,103.2-24.3,136-62.7H160.5z"/>
</g>
<g>
	<path class="st3" d="M177.5,288c-0.1,1-0.3,1.9-0.4,2.9h76.7c0.1-1,0.2-1.9,0.4-2.9H177.5z"/>
	<path class="st3" d="M480.9,227.9c-24-14.8-46.7-8.5-49-31.5c0.3-14.7,26.5-17.2,42.2-15c3.1,0.3-9.3-21.3-33.4-23.9
		c-27.8,0.2-37.2,11.6-47,2.7c-16.1-19.7,9.7-25.9,30.6-37.6c-3.2-1.1-22.1-11.5-40.2-8.2c-22.5,9.4-37.7,23.1-44.3,17.1
		c-12.5-17.3-3.8-27.8,15.7-41.1c2.3-2.6-31.3-5.6-45.6,2.1c-16.3,13.7-14.1,33.6-31.3,32.2c-25.5-0.7-12.5-33.6-4.1-44.5
		c1.6-2.4-22.6,2.8-33.4,13c-15.3,22.3-8.6,40.8-19.1,45.8c-20.5,5.6-28.2-12.5-33.4-32.2c0.1-3-20.4,22.2-23.2,39
		c2.3,20.6,15.3,36.1-0.7,43.8c-23,6.7-34.5-23-36.1-37.6c-1.4-4.7-11.9,30.4-8.2,46.5c8.2,19.1,22.7,21.8,16.3,36.9
		c-8.9,19.4-37.4,6.1-44.9-0.7c-2.2-0.8-6,24.1,0.7,36.3c5.3,5.7,10,10.3,13.6,13.6h49.5c16-77.9,80.7-131.3,148.5-124.7
		c-58.7,2.2-112,51-125.4,119.4c-0.3,1.8-0.7,3.6-0.9,5.3h76.9c4.7-18.8,21.6-32.7,41.7-32.7c20.1,0,37,13.9,41.7,32.7h96.2
		c-3-19.8-11.9-38.3-25.4-52.9c16.3,13.8,27.9,32.4,33.4,52.9h26c-4.4-5.5-9.3-14.3-8.1-25.9c4.7-9.2,32.4,1.4,43.6,9.6
		C506.4,269.1,501.4,246.7,480.9,227.9z"/>
	<path class="st3" d="M110,288c2.1,1.9,3.2,2.9,3.2,2.9h41.4c0.2-1,0.3-1.9,0.5-2.9H110z"/>
	<path class="st3" d="M471.6,288h-28.2c0.2,1,0.5,1.9,0.7,2.9h30.7C474.8,290.8,473.4,289.9,471.6,288z"/>
	<path class="st3" d="M339,288c0.2,0.9,0.3,1.9,0.4,2.9h95.9c-0.1-1-0.2-1.9-0.3-2.9H339z"/>
</g>
<line class="st4" x1="239.9" y1="437.7" x2="261.8" y2="437.7"/>
<line class="st5" x1="331.6" y1="437.7" x2="353.9" y2="437.7"/>
<path class="st6" d="M345.3,285.7c-4.5-22.8-24.6-40-48.7-40c-24.1,0-44.2,17.2-48.7,40H345.3z"/>
<g>
	<path class="st7" d="M272.5,445v-1.7l1.8-1.7c3.5-3.2,5.2-5,5.2-7c0-1.4-0.7-2.5-2.7-2.5c-1.3,0-2.4,0.7-3.2,1.2l-0.8-2
		c1.1-0.9,2.7-1.5,4.6-1.5c3.3,0,4.9,2.1,4.9,4.5c0,2.6-1.9,4.8-4.5,7.2l-1.3,1.1v0h6.1v2.3H272.5z"/>
	<path class="st7" d="M289.9,445.3c-3.4,0-5.3-3.1-5.3-7.7c0-4.7,2-7.8,5.5-7.8c3.6,0,5.3,3.2,5.3,7.6
		C295.4,442.2,293.6,445.3,289.9,445.3L289.9,445.3z M290,443.1c1.7,0,2.6-2,2.6-5.6c0-3.5-0.8-5.5-2.5-5.5c-1.6,0-2.6,2-2.6,5.5
		C287.4,441.1,288.4,443.1,290,443.1L290,443.1z"/>
	<path class="st7" d="M302.3,445.3c-3.4,0-5.3-3.1-5.3-7.7c0-4.7,2-7.8,5.5-7.8c3.6,0,5.3,3.2,5.3,7.6
		C307.7,442.2,305.9,445.3,302.3,445.3L302.3,445.3z M302.4,443.1c1.7,0,2.6-2,2.6-5.6c0-3.5-0.8-5.5-2.5-5.5c-1.6,0-2.6,2-2.6,5.5
		C299.8,441.1,300.8,443.1,302.4,443.1L302.4,443.1z"/>
	<path class="st7" d="M315.7,445v-3.8H309v-1.8l6.1-9.3h3.3v9h1.9v2.1h-1.9v3.8H315.7z M315.7,439.1V435c0-0.9,0-1.7,0.1-2.6h-0.1
		c-0.5,0.9-0.9,1.7-1.3,2.5l-2.8,4.1v0H315.7z"/>
</g>
</svg>
