<svg id="Vrstva_1" data-name="Vrstva 1" xmlns="http://www.w3.org/2000/svg" viewBox="0 0 624.15 202.44"><defs><style>.cls-1{fill:#61923f;}.cls-2{fill:none;stroke:#61923f;stroke-miterlimit:10;stroke-width:4px;}.cls-3{fill:#231f20;}</style></defs><title>Logo1</title><path class="cls-1" d="M116,244v58.22c0,3.22,5,3.23,5,0V244c0-3.22-5-3.23-5,0Z" transform="translate(-114.92 -166.6)"/><path class="cls-1" d="M195.74,299.67H118.51c-3.22,0-3.22,5,0,5h77.23c3.21,0,3.22-5,0-5Z" transform="translate(-114.92 -166.6)"/><path class="cls-1" d="M193.24,244v58.22c0,3.22,5,3.23,5,0V244c0-3.22-5-3.23-5,0Z" transform="translate(-114.92 -166.6)"/><path class="cls-1" d="M155.36,203.56l-38.62,38.62c-2.28,2.28,1.26,5.81,3.54,3.53l38.61-38.61c2.28-2.28-1.26-5.82-3.53-3.54Z" transform="translate(-114.92 -166.6)"/><path class="cls-1" d="M155.36,207.1,194,245.71c2.28,2.28,5.81-1.25,3.53-3.53l-38.61-38.62c-2.28-2.27-5.81,1.26-3.53,3.54Z" transform="translate(-114.92 -166.6)"/><rect class="cls-2" x="52.62" y="91.98" width="17.33" height="17.33"/><rect class="cls-2" x="15.23" y="87.25" width="25.74" height="48.51"/><path class="cls-1" d="M182.37,194.84v35.82c0,3.22,5,3.22,5,0V194.84c0-3.21-5-3.22-5,0Z" transform="translate(-114.92 -166.6)"/><path class="cls-1" d="M168.49,189.56v28.72c0,3.22,5,3.22,5,0V189.56c0-3.22-5-3.22-5,0Z" transform="translate(-114.92 -166.6)"/><path class="cls-1" d="M354.05,192.34H184.87c-3.22,0-3.23,5,0,5H354.05c3.21,0,3.22-5,0-5Z" transform="translate(-114.92 -166.6)"/><path class="cls-1" d="M340.18,178.39H192.82c-3.22,0-3.23,5,0,5H340.18c3.21,0,3.22-5,0-5Z" transform="translate(-114.92 -166.6)"/><path class="cls-1" d="M338.41,182.66l13.87,14c2.27,2.29,5.81-1.25,3.53-3.53l-13.87-14c-2.27-2.28-5.8,1.25-3.53,3.54Z" transform="translate(-114.92 -166.6)"/><path class="cls-1" d="M171,187.06H137.82c-3.22,0-3.23,5,0,5H171c3.22,0,3.23-5,0-5Z" transform="translate(-114.92 -166.6)"/><path class="cls-1" d="M121.45,173.76v29.16c0,3.22,5,3.22,5,0V173.76c0-3.22-5-3.23-5,0Z" transform="translate(-114.92 -166.6)"/><path class="cls-1" d="M135.32,189.56v7.56c0,3.22,5,3.23,5,0v-7.56c0-3.22-5-3.22-5,0Z" transform="translate(-114.92 -166.6)"/><path class="cls-1" d="M135.32,173.76v6.94c0,3.21,5,3.22,5,0v-6.94c0-3.22-5-3.23-5,0Z" transform="translate(-114.92 -166.6)"/><path class="cls-1" d="M137.15,194.71l-13.86,5.8c-2.92,1.22-1.64,6.06,1.33,4.82l13.86-5.8c2.93-1.22,1.64-6.06-1.33-4.82Z" transform="translate(-114.92 -166.6)"/><path class="cls-1" d="M137.82,171.26H124c-3.21,0-3.22,5,0,5h13.87c3.21,0,3.22-5,0-5Z" transform="translate(-114.92 -166.6)"/><path class="cls-3" d="M294.44,302.5a2,2,0,0,1-.24,1,1.67,1.67,0,0,1-.84.67,7.89,7.89,0,0,1-1.54.43,14.48,14.48,0,0,1-2.44.17,14.86,14.86,0,0,1-2.39-.17,7.15,7.15,0,0,1-1.57-.43,1.67,1.67,0,0,1-.81-.67,2,2,0,0,1-.24-1V222.4h-.12l-26.72,80.46a2.48,2.48,0,0,1-.5.85,2.38,2.38,0,0,1-.94.6,5.57,5.57,0,0,1-1.46.36,16.9,16.9,0,0,1-2,.1,12.82,12.82,0,0,1-2.11-.14,6,6,0,0,1-1.47-.39,2.36,2.36,0,0,1-.9-.6,1.81,1.81,0,0,1-.44-.78L222.14,222.4h-.06v80.1a2,2,0,0,1-.24,1,1.65,1.65,0,0,1-.85.67,7.74,7.74,0,0,1-1.56.43,15.18,15.18,0,0,1-2.48.17,14.6,14.6,0,0,1-2.41-.17,7,7,0,0,1-1.54-.43,1.53,1.53,0,0,1-.79-.67,2.26,2.26,0,0,1-.21-1V217.93c0-2,.44-3.42,1.31-4.27a4.1,4.1,0,0,1,2.92-1.28h6.19a11.55,11.55,0,0,1,3.33.43,6.66,6.66,0,0,1,2.5,1.35A7.71,7.71,0,0,1,230,216.5a18.69,18.69,0,0,1,1.25,3.35L253,286.44h.29l22.56-66.38a22.15,22.15,0,0,1,1.43-3.63,9.27,9.27,0,0,1,1.7-2.38,5.56,5.56,0,0,1,2.05-1.28,8,8,0,0,1,2.62-.39h6.49a4.57,4.57,0,0,1,1.69.32,3.41,3.41,0,0,1,1.37,1,5.4,5.4,0,0,1,.93,1.7,7.76,7.76,0,0,1,.35,2.53Z" transform="translate(-114.92 -166.6)"/><path class="cls-3" d="M371.38,300a10.57,10.57,0,0,1,.5,2.53,2,2,0,0,1-.44,1.45,2.54,2.54,0,0,1-1.56.64,22.42,22.42,0,0,1-2.9.14c-1.21,0-2.17,0-2.9-.1a5.36,5.36,0,0,1-1.64-.36,1.79,1.79,0,0,1-.82-.67,6.78,6.78,0,0,1-.5-1.07l-6.5-22.39H323.1l-6.21,22.11a4.44,4.44,0,0,1-.47,1.1,2.38,2.38,0,0,1-.85.78,4.45,4.45,0,0,1-1.58.46,19.51,19.51,0,0,1-2.67.14,19,19,0,0,1-2.78-.17,2.57,2.57,0,0,1-1.53-.68,2.06,2.06,0,0,1-.41-1.46,10.51,10.51,0,0,1,.5-2.52l25.43-85.43a3.86,3.86,0,0,1,.62-1.27,2.41,2.41,0,0,1,1.11-.79,7.43,7.43,0,0,1,1.87-.39c.77-.07,1.73-.1,2.9-.1s2.29,0,3.11.1a8.12,8.12,0,0,1,2,.39,2.57,2.57,0,0,1,1.17.82,4,4,0,0,1,.65,1.32Zm-32.64-75.4h-.06l-13.06,45.84H352Z" transform="translate(-114.92 -166.6)"/><path class="cls-3" d="M434.6,302.5a2.79,2.79,0,0,1-.17,1,1.5,1.5,0,0,1-.77.71,5.67,5.67,0,0,1-1.64.42,21.1,21.1,0,0,1-2.81.14,17.1,17.1,0,0,1-2.49-.14,4.67,4.67,0,0,1-1.55-.46,2.23,2.23,0,0,1-.91-.89,6.18,6.18,0,0,1-.56-1.42l-7-21.68q-1.23-3.69-2.55-6.78a22.29,22.29,0,0,0-3.13-5.33,12.23,12.23,0,0,0-10.2-4.73h-6.74V302.5a1.93,1.93,0,0,1-.26,1,1.85,1.85,0,0,1-.82.67,6.77,6.77,0,0,1-1.52.43,17.52,17.52,0,0,1-4.87,0,7.44,7.44,0,0,1-1.55-.43,1.61,1.61,0,0,1-.82-.67,2,2,0,0,1-.24-1V217.36c0-1.85.41-3.14,1.21-3.88a3.74,3.74,0,0,1,2.54-1.1H403.9q2.87,0,4.77.18c1.27.12,2.41.25,3.43.39a25.39,25.39,0,0,1,7.76,2.92,18.9,18.9,0,0,1,5.66,5,21.67,21.67,0,0,1,3.43,7,31.29,31.29,0,0,1,1.14,8.71,30.46,30.46,0,0,1-1,8.28,21.61,21.61,0,0,1-2.95,6.46,21.22,21.22,0,0,1-4.63,4.87,27.71,27.71,0,0,1-6,3.49,14.09,14.09,0,0,1,3.4,2.52,20.6,20.6,0,0,1,2.84,3.66,36,36,0,0,1,2.49,4.9q1.17,2.77,2.35,6.26l6.79,20.25c.55,1.71.9,2.9,1.06,3.59A8.17,8.17,0,0,1,434.6,302.5Zm-15.17-64.6a19.2,19.2,0,0,0-2-9.14,11.45,11.45,0,0,0-6.68-5.36,15.91,15.91,0,0,0-3.31-.71,44.1,44.1,0,0,0-4.83-.22h-8.5v31H404a18.35,18.35,0,0,0,6.88-1.17,12.79,12.79,0,0,0,7.68-8.21A20.37,20.37,0,0,0,419.43,237.9Z" transform="translate(-114.92 -166.6)"/><path class="cls-3" d="M511.54,257.3a85.9,85.9,0,0,1-2.17,20.11,46,46,0,0,1-6.48,15.25,29.33,29.33,0,0,1-10.81,9.66,32.47,32.47,0,0,1-15.17,3.38,33,33,0,0,1-14.8-3.09,26.93,26.93,0,0,1-10.31-9A42,42,0,0,1,445.73,279a91.66,91.66,0,0,1-2-20.12,83.22,83.22,0,0,1,2.17-19.76,44.62,44.62,0,0,1,6.5-15.1,29.91,29.91,0,0,1,10.84-9.59,36,36,0,0,1,29.77-.32A27.18,27.18,0,0,1,503.36,223a41,41,0,0,1,6.15,14.5A87,87,0,0,1,511.54,257.3Zm-10.67.85a87,87,0,0,0-1.14-14.53,38,38,0,0,0-3.8-11.66,20.23,20.23,0,0,0-7.11-7.71,20.45,20.45,0,0,0-11-2.77,19.31,19.31,0,0,0-11,3,22.84,22.84,0,0,0-7.22,8,37.1,37.1,0,0,0-4,11.62,78.64,78.64,0,0,0-1.2,14,93.06,93.06,0,0,0,1.11,14.92,38.05,38.05,0,0,0,3.74,11.77,19.7,19.7,0,0,0,7.06,7.67,20.64,20.64,0,0,0,11.08,2.74,19.69,19.69,0,0,0,11.12-3,22,22,0,0,0,7.26-8.06,38.63,38.63,0,0,0,3.92-11.77A81.83,81.83,0,0,0,500.87,258.15Z" transform="translate(-114.92 -166.6)"/><path class="cls-3" d="M566.79,299a19.65,19.65,0,0,1-.12,2.38,6.64,6.64,0,0,1-.38,1.63,2.47,2.47,0,0,1-.64,1,1.4,1.4,0,0,1-.91.32H531.22a3.74,3.74,0,0,1-2.55-1.1c-.8-.74-1.2-2-1.2-3.88V214.23a2,2,0,0,1,.24-1,1.58,1.58,0,0,1,.82-.68,7.88,7.88,0,0,1,1.58-.43,17.24,17.24,0,0,1,4.83,0,8,8,0,0,1,1.56.43,1.62,1.62,0,0,1,.82.68,2.07,2.07,0,0,1,.23,1v79.53h27.19a1.4,1.4,0,0,1,.91.32,2.42,2.42,0,0,1,.64.92,5.78,5.78,0,0,1,.38,1.6A20.62,20.62,0,0,1,566.79,299Z" transform="translate(-114.92 -166.6)"/><path class="cls-3" d="M620.11,299.3a18.34,18.34,0,0,1-.12,2.24,5.11,5.11,0,0,1-.41,1.6,2.22,2.22,0,0,1-.67.92,1.39,1.39,0,0,1-.85.29H581.67a3.74,3.74,0,0,1-2.55-1.1c-.8-.74-1.2-2-1.2-3.88v-82c0-1.85.4-3.14,1.2-3.88a3.74,3.74,0,0,1,2.55-1.1h36a1.39,1.39,0,0,1,.85.29,1.9,1.9,0,0,1,.61.92,8.33,8.33,0,0,1,.39,1.6,17.4,17.4,0,0,1,.14,2.38,16.26,16.26,0,0,1-.14,2.24,7.35,7.35,0,0,1-.39,1.56,1.9,1.9,0,0,1-.61.89,1.39,1.39,0,0,1-.85.29H588V251.4h25.43a1.3,1.3,0,0,1,.85.32,2.46,2.46,0,0,1,.64.89,5.19,5.19,0,0,1,.39,1.56,22.76,22.76,0,0,1,.11,2.35,19.64,19.64,0,0,1-.11,2.2,5,5,0,0,1-.39,1.49,1.84,1.84,0,0,1-.64.82,1.49,1.49,0,0,1-.85.25H588v32.9h30.06a1.39,1.39,0,0,1,.85.29,2.39,2.39,0,0,1,.67.89,4.64,4.64,0,0,1,.41,1.56A19.65,19.65,0,0,1,620.11,299.3Z" transform="translate(-114.92 -166.6)"/><path class="cls-3" d="M686,302.36a2.46,2.46,0,0,1-.21,1,1.48,1.48,0,0,1-.79.74,6.11,6.11,0,0,1-1.58.47,16.19,16.19,0,0,1-2.58.17,21.59,21.59,0,0,1-3.34-.21,3.79,3.79,0,0,1-1.93-.78,5.09,5.09,0,0,1-1-1.28l-27.9-46v46a2.06,2.06,0,0,1-.23,1,1.57,1.57,0,0,1-.82.71,7.44,7.44,0,0,1-1.55.43,14.86,14.86,0,0,1-2.43.17,15,15,0,0,1-2.41-.17,7.43,7.43,0,0,1-1.58-.43,1.57,1.57,0,0,1-.82-.71,2.06,2.06,0,0,1-.23-1V214.23a2,2,0,0,1,.23-1,1.62,1.62,0,0,1,.82-.68,8.08,8.08,0,0,1,1.58-.43,15,15,0,0,1,2.41-.17,14.86,14.86,0,0,1,2.43.17,8.11,8.11,0,0,1,1.55.43,1.62,1.62,0,0,1,.82.68,2,2,0,0,1,.23,1V255.1l26.84-40.87a4.32,4.32,0,0,1,.82-1.07,3.54,3.54,0,0,1,1.14-.67,7.76,7.76,0,0,1,1.64-.39,17.1,17.1,0,0,1,2.49-.14,14.79,14.79,0,0,1,2.47.17,5.7,5.7,0,0,1,1.49.47,1.6,1.6,0,0,1,.76.71,2,2,0,0,1,.21.92,4.9,4.9,0,0,1-.38,1.85,18.93,18.93,0,0,1-1.44,2.56L657.49,255.1l27.07,43.63a16.41,16.41,0,0,1,1.2,2.53A3.85,3.85,0,0,1,686,302.36Z" transform="translate(-114.92 -166.6)"/><path class="cls-3" d="M738.53,278.55a31.74,31.74,0,0,1-2,11.51,24.81,24.81,0,0,1-5.45,8.57,22.67,22.67,0,0,1-8.21,5.29,28.44,28.44,0,0,1-10.16,1.78,30.18,30.18,0,0,1-7.06-.78,33.7,33.7,0,0,1-5.8-1.92,25.69,25.69,0,0,1-4.28-2.35,11.33,11.33,0,0,1-2.4-2.06,5.52,5.52,0,0,1-1-2.17,15.58,15.58,0,0,1-.32-3.51c0-1.05,0-1.91.11-2.6a7.26,7.26,0,0,1,.36-1.67,1.81,1.81,0,0,1,.58-.89,1.44,1.44,0,0,1,.82-.25,4.44,4.44,0,0,1,2.32,1.21,34.31,34.31,0,0,0,9.49,5.3,21.65,21.65,0,0,0,7.65,1.24,16.13,16.13,0,0,0,6-1.07,13.43,13.43,0,0,0,4.69-3,13.15,13.15,0,0,0,3-4.79A18.6,18.6,0,0,0,728,279.9a14.2,14.2,0,0,0-1.46-6.68,17,17,0,0,0-3.87-4.87,32.88,32.88,0,0,0-5.48-3.84l-6.3-3.55a65.24,65.24,0,0,1-6.27-4,27.82,27.82,0,0,1-5.45-5.18,24.9,24.9,0,0,1-3.89-7,27.61,27.61,0,0,1-1.5-9.64,28.55,28.55,0,0,1,1.73-10.26,21.09,21.09,0,0,1,4.81-7.57,20.52,20.52,0,0,1,7.32-4.66,26,26,0,0,1,9.17-1.6,24.42,24.42,0,0,1,5.07.54,29.16,29.16,0,0,1,4.8,1.42,23.9,23.9,0,0,1,4,2,10.27,10.27,0,0,1,2.31,1.77,5.05,5.05,0,0,1,.73,1.07,4.5,4.5,0,0,1,.3,1c.07.41.13.89.17,1.46s.06,1.31.06,2.2,0,1.62-.09,2.28a10.33,10.33,0,0,1-.26,1.67,2.09,2.09,0,0,1-.5,1,1,1,0,0,1-.73.32,4.29,4.29,0,0,1-2-1c-.92-.66-2-1.41-3.37-2.24a26.3,26.3,0,0,0-4.72-2.27,17.12,17.12,0,0,0-6.12-1,13.55,13.55,0,0,0-5.51,1,11.13,11.13,0,0,0-3.87,2.73,11.34,11.34,0,0,0-2.28,4,16,16,0,0,0-.76,5,13.93,13.93,0,0,0,1.46,6.61,17.15,17.15,0,0,0,3.9,4.9,33.29,33.29,0,0,0,5.54,3.91c2.07,1.19,4.17,2.38,6.32,3.59s4.26,2.53,6.33,4a27.73,27.73,0,0,1,5.54,5.12,23.72,23.72,0,0,1,3.92,7A27.12,27.12,0,0,1,738.53,278.55Z" transform="translate(-114.92 -166.6)"/><path class="cls-3" d="M134.57,355.33a8,8,0,0,1-.7,3.4,7.26,7.26,0,0,1-2,2.53,8.45,8.45,0,0,1-2.94,1.56,12.18,12.18,0,0,1-3.64.53,13.36,13.36,0,0,1-2.53-.23,15.06,15.06,0,0,1-2.08-.57,10.23,10.23,0,0,1-1.53-.69,4.12,4.12,0,0,1-.86-.61,1.6,1.6,0,0,1-.36-.64,3.71,3.71,0,0,1-.11-1,5.5,5.5,0,0,1,0-.77,2.19,2.19,0,0,1,.12-.49.52.52,0,0,1,.21-.26.61.61,0,0,1,.3-.08,1.74,1.74,0,0,1,.83.36,11.88,11.88,0,0,0,1.37.78,13.12,13.12,0,0,0,2,.78,9.08,9.08,0,0,0,2.74.37,7,7,0,0,0,2.15-.31,5,5,0,0,0,1.68-.9,3.75,3.75,0,0,0,1.08-1.41,4.65,4.65,0,0,0,.38-1.91,3.61,3.61,0,0,0-.53-2,5.52,5.52,0,0,0-1.38-1.44,12.6,12.6,0,0,0-2-1.13l-2.26-1.05a24.17,24.17,0,0,1-2.25-1.19,9.16,9.16,0,0,1-2-1.53,7.33,7.33,0,0,1-1.4-2.07,7.82,7.82,0,0,1,.09-5.88,6.2,6.2,0,0,1,1.72-2.23,7.79,7.79,0,0,1,2.62-1.38,11.23,11.23,0,0,1,3.29-.47,10.26,10.26,0,0,1,1.82.16,11.38,11.38,0,0,1,1.72.42,8.8,8.8,0,0,1,1.44.59,3.42,3.42,0,0,1,.82.52,1.29,1.29,0,0,1,.27.32,1.21,1.21,0,0,1,.1.29,3.51,3.51,0,0,1,.07.43c0,.17,0,.39,0,.65a4.47,4.47,0,0,1,0,.67,2.82,2.82,0,0,1-.09.5.56.56,0,0,1-.18.29.41.41,0,0,1-.26.09,1.55,1.55,0,0,1-.72-.29c-.33-.2-.74-.42-1.21-.66a10.08,10.08,0,0,0-1.69-.67,7.18,7.18,0,0,0-2.2-.31,5.62,5.62,0,0,0-2,.31,4,4,0,0,0-1.39.81,3.15,3.15,0,0,0-.81,1.19,3.81,3.81,0,0,0-.28,1.47,3.51,3.51,0,0,0,.53,1.95,5.3,5.3,0,0,0,1.39,1.45,12.55,12.55,0,0,0,2,1.16l2.27,1.06c.76.36,1.52.75,2.26,1.17a9.7,9.7,0,0,1,2,1.52,6.57,6.57,0,0,1,1.94,4.86Z" transform="translate(-114.92 -166.6)"/><path class="cls-3" d="M156.47,337.33a6.81,6.81,0,0,1,0,.7,1.64,1.64,0,0,1-.14.47.59.59,0,0,1-.23.26.53.53,0,0,1-.31.08h-7.64V362.4a.61.61,0,0,1-.08.3.63.63,0,0,1-.3.2,2.7,2.7,0,0,1-.55.12,5.36,5.36,0,0,1-.87.05,5.51,5.51,0,0,1-.87-.05,2.82,2.82,0,0,1-.56-.12.63.63,0,0,1-.3-.2.61.61,0,0,1-.08-.3V338.84h-7.64a.55.55,0,0,1-.31-.08.58.58,0,0,1-.22-.26,2.08,2.08,0,0,1-.13-.47,3.58,3.58,0,0,1-.06-.7,3.65,3.65,0,0,1,.06-.7,2.13,2.13,0,0,1,.13-.49.64.64,0,0,1,.22-.28.65.65,0,0,1,.31-.08h18.89a.62.62,0,0,1,.31.08.66.66,0,0,1,.23.28,1.7,1.7,0,0,1,.14.49A7,7,0,0,1,156.47,337.33Z" transform="translate(-114.92 -166.6)"/><path class="cls-3" d="M177.38,361.67a2.77,2.77,0,0,1,.18.74.5.5,0,0,1-.16.43,1,1,0,0,1-.56.19,9.43,9.43,0,0,1-1,0c-.44,0-.79,0-1,0a2.28,2.28,0,0,1-.59-.1.69.69,0,0,1-.3-.2,1.58,1.58,0,0,1-.17-.32l-2.33-6.61h-11.3l-2.23,6.53a1.13,1.13,0,0,1-.16.33,1,1,0,0,1-.31.23,2,2,0,0,1-.57.13,8.2,8.2,0,0,1-.95,0,7,7,0,0,1-1-.05.91.91,0,0,1-.54-.2.51.51,0,0,1-.15-.43,2.36,2.36,0,0,1,.18-.74l9.11-25.24a1.15,1.15,0,0,1,.22-.38.9.9,0,0,1,.4-.23,3.25,3.25,0,0,1,.67-.12c.27,0,.62,0,1,0s.82,0,1.11,0a3.69,3.69,0,0,1,.72.12,1.06,1.06,0,0,1,.42.24,1.49,1.49,0,0,1,.23.39Zm-11.69-22.28h0L161,352.93h9.45Z" transform="translate(-114.92 -166.6)"/><path class="cls-3" d="M191,362.32a1.28,1.28,0,0,1-.23.38,1.22,1.22,0,0,1-.41.23,3.46,3.46,0,0,1-.67.11q-.42,0-1,0h-.81a3.45,3.45,0,0,1-.6-.05l-.43-.09a1,1,0,0,1-.3-.14.55.55,0,0,1-.2-.2,1.46,1.46,0,0,1-.14-.28l-8.88-25.24a2.82,2.82,0,0,1-.18-.75.48.48,0,0,1,.18-.43,1.19,1.19,0,0,1,.61-.18,10.81,10.81,0,0,1,1.13-.05c.39,0,.7,0,.94,0a1.9,1.9,0,0,1,.53.12.64.64,0,0,1,.28.22,1.27,1.27,0,0,1,.18.35l7.79,22.86h0l7.58-22.82a1.37,1.37,0,0,1,.15-.38.54.54,0,0,1,.29-.23,2.33,2.33,0,0,1,.59-.12c.25,0,.59,0,1,0a6.93,6.93,0,0,1,1,.06.81.81,0,0,1,.51.2.52.52,0,0,1,.11.43,3.63,3.63,0,0,1-.2.74Z" transform="translate(-114.92 -166.6)"/><path class="cls-3" d="M222.35,355.16a8.07,8.07,0,0,1-.32,2.36,6.81,6.81,0,0,1-.92,1.94A6.53,6.53,0,0,1,219.7,361a8.44,8.44,0,0,1-1.87,1.1,11.11,11.11,0,0,1-2.23.66,14.67,14.67,0,0,1-2.72.22h-7.09a1.51,1.51,0,0,1-.92-.33,1.36,1.36,0,0,1-.43-1.14V337.25a1.38,1.38,0,0,1,.43-1.15,1.56,1.56,0,0,1,.92-.32H212a14.29,14.29,0,0,1,4,.46,7.13,7.13,0,0,1,2.59,1.34,5.49,5.49,0,0,1,1.57,2.17,7.57,7.57,0,0,1,.52,2.9,7.36,7.36,0,0,1-.23,1.84,6,6,0,0,1-.68,1.63,5.33,5.33,0,0,1-1.14,1.33,5.87,5.87,0,0,1-1.56,1,6.52,6.52,0,0,1,3.77,2.18,6.75,6.75,0,0,1,1.14,2A7.4,7.4,0,0,1,222.35,355.16ZM216.92,343a5.49,5.49,0,0,0-.28-1.78,3.23,3.23,0,0,0-.86-1.36,3.92,3.92,0,0,0-1.52-.85,8.87,8.87,0,0,0-2.5-.29H208v8.8h4.11a5.88,5.88,0,0,0,2.26-.37,4.11,4.11,0,0,0,1.43-1,3.78,3.78,0,0,0,.82-1.45A5.46,5.46,0,0,0,216.92,343Zm1.63,12.37a5.64,5.64,0,0,0-.38-2.14,4,4,0,0,0-1.14-1.56,5,5,0,0,0-1.86-.95,10.19,10.19,0,0,0-2.82-.33H208V360h5.24a7,7,0,0,0,2.16-.3,4.65,4.65,0,0,0,1.63-.87,3.93,3.93,0,0,0,1.09-1.44A4.62,4.62,0,0,0,218.55,355.37Z" transform="translate(-114.92 -166.6)"/><path class="cls-3" d="M235.29,352.39v10a.53.53,0,0,1-.09.3.55.55,0,0,1-.29.2,2.82,2.82,0,0,1-.56.12,5.38,5.38,0,0,1-.86.05,5.16,5.16,0,0,1-.86-.05,3.12,3.12,0,0,1-.57-.12.58.58,0,0,1-.3-.2.52.52,0,0,1-.08-.3v-10L224,337.06a3.17,3.17,0,0,1-.28-.76.43.43,0,0,1,.1-.42,1,1,0,0,1,.57-.18,10.31,10.31,0,0,1,1.1-.05,9.08,9.08,0,0,1,1,.05,2.68,2.68,0,0,1,.62.11.8.8,0,0,1,.35.21,2.13,2.13,0,0,1,.22.35l3.75,7.81c.35.74.7,1.52,1.05,2.33s.7,1.63,1.06,2.45h0c.32-.79.65-1.59,1-2.38s.68-1.57,1-2.34l3.78-7.85a1,1,0,0,1,.18-.36.68.68,0,0,1,.32-.22,2,2,0,0,1,.55-.11,7.33,7.33,0,0,1,.9-.05,9.11,9.11,0,0,1,1.19.06,1.07,1.07,0,0,1,.6.2.4.4,0,0,1,.11.42,2.67,2.67,0,0,1-.28.73Z" transform="translate(-114.92 -166.6)"/><path class="cls-3" d="M246.48,360a10.87,10.87,0,0,1-.06,1.19,7.49,7.49,0,0,1-.21,1,6.45,6.45,0,0,1-.39,1,9.35,9.35,0,0,1-.6,1l-2.88,4.33a1.14,1.14,0,0,1-.24.25,1.52,1.52,0,0,1-.34.19,1.81,1.81,0,0,1-.46.12,5.86,5.86,0,0,1-.66,0,5,5,0,0,1-.6,0,.89.89,0,0,1-.34-.11.27.27,0,0,1-.12-.2.58.58,0,0,1,.07-.29l2.8-5.78V360a3.18,3.18,0,0,1,.11-.91,1,1,0,0,1,.37-.5,1.62,1.62,0,0,1,.63-.23,7,7,0,0,1,1.83,0,1.57,1.57,0,0,1,.62.23.93.93,0,0,1,.35.5A2.82,2.82,0,0,1,246.48,360Z" transform="translate(-114.92 -166.6)"/><path class="cls-3" d="M280.87,362.4a.73.73,0,0,1-.06.3.59.59,0,0,1-.28.21,2.75,2.75,0,0,1-.58.12,9.26,9.26,0,0,1-1,0,7.21,7.21,0,0,1-.89,0,2.11,2.11,0,0,1-.56-.13.8.8,0,0,1-.33-.27,2.06,2.06,0,0,1-.2-.42l-2.49-6.4c-.3-.73-.6-1.4-.92-2a6.54,6.54,0,0,0-1.12-1.57,4.74,4.74,0,0,0-1.53-1,5.62,5.62,0,0,0-2.12-.37h-2.42V362.4a.53.53,0,0,1-.09.3.69.69,0,0,1-.3.2,2.44,2.44,0,0,1-.54.12,5.36,5.36,0,0,1-.87.05,5.57,5.57,0,0,1-.88-.05,2.7,2.7,0,0,1-.55-.12.63.63,0,0,1-.3-.2.61.61,0,0,1-.08-.3V337.25a1.35,1.35,0,0,1,.43-1.15,1.53,1.53,0,0,1,.91-.32h5.78c.68,0,1.25,0,1.71.05l1.23.12a10.43,10.43,0,0,1,2.78.86,6.72,6.72,0,0,1,2,1.49,6,6,0,0,1,1.22,2.07,7.49,7.49,0,0,1,.41,2.57,7.68,7.68,0,0,1-.36,2.44,6.08,6.08,0,0,1-1.06,1.92,7.17,7.17,0,0,1-1.66,1.43,10.61,10.61,0,0,1-2.17,1,5.19,5.19,0,0,1,1.22.75,6.21,6.21,0,0,1,1,1.08,10.31,10.31,0,0,1,.89,1.45c.28.54.56,1.16.84,1.85l2.44,6c.19.5.32.86.38,1.06A2.17,2.17,0,0,1,280.87,362.4Zm-5.44-19.08a4.89,4.89,0,0,0-.71-2.7,4.08,4.08,0,0,0-2.4-1.59,8.67,8.67,0,0,0-1.18-.21c-.44,0-1-.06-1.73-.06h-3.05v9.16h3.53a7.91,7.91,0,0,0,2.47-.35,4.76,4.76,0,0,0,1.73-1,3.79,3.79,0,0,0,1-1.46A5.16,5.16,0,0,0,275.43,343.32Z" transform="translate(-114.92 -166.6)"/><path class="cls-3" d="M301.21,361.46a4.33,4.33,0,0,1,0,.66,1.38,1.38,0,0,1-.14.47.6.6,0,0,1-.25.27.53.53,0,0,1-.3.09h-13a1.46,1.46,0,0,1-.91-.33,1.33,1.33,0,0,1-.43-1.14V337.25a1.35,1.35,0,0,1,.43-1.15,1.51,1.51,0,0,1,.91-.32h12.89a.65.65,0,0,1,.31.08.64.64,0,0,1,.22.28,2.08,2.08,0,0,1,.13.47,3.44,3.44,0,0,1,.06.7,3.23,3.23,0,0,1-.06.66,2.08,2.08,0,0,1-.13.47.71.71,0,0,1-.22.26.65.65,0,0,1-.31.08H289.71v8.53h9.11a.59.59,0,0,1,.31.09.84.84,0,0,1,.23.26,1.59,1.59,0,0,1,.13.46,4.68,4.68,0,0,1,.05.7,4,4,0,0,1-.05.65,1.44,1.44,0,0,1-.13.44.56.56,0,0,1-.54.31h-9.11V360h10.77a.52.52,0,0,1,.3.08.7.7,0,0,1,.25.26,1.39,1.39,0,0,1,.14.46A4.78,4.78,0,0,1,301.21,361.46Z" transform="translate(-114.92 -166.6)"/><path class="cls-3" d="M324.81,362.36a.67.67,0,0,1-.07.31.54.54,0,0,1-.28.22,2.7,2.7,0,0,1-.57.13,6,6,0,0,1-.92.05,9.72,9.72,0,0,1-1.2-.06,1.5,1.5,0,0,1-.69-.23,1.52,1.52,0,0,1-.38-.38l-10-13.58V362.4a.52.52,0,0,1-.38.5,2.82,2.82,0,0,1-.56.12,7.51,7.51,0,0,1-1.73,0,2.78,2.78,0,0,1-.57-.12.51.51,0,0,1-.29-.21.55.55,0,0,1-.09-.29V336.33a.51.51,0,0,1,.09-.3.55.55,0,0,1,.29-.2,2.78,2.78,0,0,1,.57-.12,6.27,6.27,0,0,1,1.73,0,2.82,2.82,0,0,1,.56.12.6.6,0,0,1,.29.2.51.51,0,0,1,.09.3V348.4l9.61-12.07a1.15,1.15,0,0,1,.3-.32,1.36,1.36,0,0,1,.4-.2,3,3,0,0,1,.59-.11,7,7,0,0,1,.89-.05,5.32,5.32,0,0,1,.89.06,2.41,2.41,0,0,1,.53.13.59.59,0,0,1,.28.21.68.68,0,0,1,.07.28,1.21,1.21,0,0,1-.14.54,5.5,5.5,0,0,1-.51.76l-9,10.77,9.7,12.89a4.23,4.23,0,0,1,.43.75A.93.93,0,0,1,324.81,362.36Z" transform="translate(-114.92 -166.6)"/><path class="cls-3" d="M350.16,349.05a21,21,0,0,1-.78,5.94,12.39,12.39,0,0,1-2.32,4.5,10.1,10.1,0,0,1-3.87,2.86,15.51,15.51,0,0,1-10.74.08,9.25,9.25,0,0,1-3.7-2.65,11.31,11.31,0,0,1-2.17-4.33,22.17,22.17,0,0,1-.72-5.94,20.48,20.48,0,0,1,.78-5.84,12.3,12.3,0,0,1,2.33-4.46,10.31,10.31,0,0,1,3.89-2.83,13.6,13.6,0,0,1,5.43-1,13.86,13.86,0,0,1,5.23.9,9.4,9.4,0,0,1,3.71,2.64,11.2,11.2,0,0,1,2.2,4.28A21.17,21.17,0,0,1,350.16,349.05Zm-3.82.25a21.4,21.4,0,0,0-.41-4.29,10,10,0,0,0-1.37-3.45,6.48,6.48,0,0,0-2.54-2.27,8.55,8.55,0,0,0-3.95-.82,8,8,0,0,0-3.94.88,7.5,7.5,0,0,0-2.59,2.35,9.7,9.7,0,0,0-1.42,3.43,19.09,19.09,0,0,0-.43,4.13,23.34,23.34,0,0,0,.39,4.41,9.91,9.91,0,0,0,1.35,3.47,6.42,6.42,0,0,0,2.52,2.27,8.7,8.7,0,0,0,4,.81,8.3,8.3,0,0,0,4-.88,7.12,7.12,0,0,0,2.6-2.39,10.06,10.06,0,0,0,1.41-3.47A20.08,20.08,0,0,0,346.34,349.3Z" transform="translate(-114.92 -166.6)"/><path class="cls-3" d="M376.4,361.46a1.66,1.66,0,0,1-.14.71,1.29,1.29,0,0,1-.37.48,1.41,1.41,0,0,1-.51.28,2.16,2.16,0,0,1-.56.08h-1.2a4.22,4.22,0,0,1-1-.11,2.29,2.29,0,0,1-.8-.42,4.46,4.46,0,0,1-.76-.83,12,12,0,0,1-.81-1.35L362,344.85c-.44-.8-.87-1.63-1.31-2.51s-.85-1.72-1.23-2.55h0q0,1.51.06,3.09c0,1.05,0,2.09,0,3.12v16.4a.55.55,0,0,1-.09.29.58.58,0,0,1-.3.21,2.7,2.7,0,0,1-.55.12,5.42,5.42,0,0,1-.88.05,5.36,5.36,0,0,1-.87-.05,2.7,2.7,0,0,1-.55-.12.56.56,0,0,1-.28-.21.55.55,0,0,1-.09-.29V337.33a1.39,1.39,0,0,1,.47-1.19,1.71,1.71,0,0,1,1-.36h1.78a4.45,4.45,0,0,1,1,.1,2.2,2.2,0,0,1,.76.35,3.21,3.21,0,0,1,.65.67,9.5,9.5,0,0,1,.66,1.08l6.37,11.93,1.14,2.13c.36.69.72,1.38,1,2l1,2c.33.65.66,1.31,1,2h0c0-1.11,0-2.26-.05-3.46s0-2.35,0-3.45V336.39a.44.44,0,0,1,.09-.27.74.74,0,0,1,.3-.23,2.12,2.12,0,0,1,.55-.13,7.38,7.38,0,0,1,.9,0,7,7,0,0,1,.84,0,1.93,1.93,0,0,1,.55.13.7.7,0,0,1,.29.23.44.44,0,0,1,.09.27Z" transform="translate(-114.92 -166.6)"/><path class="cls-3" d="M398.22,355.33a7.89,7.89,0,0,1-.71,3.4,7.35,7.35,0,0,1-1.95,2.53,8.45,8.45,0,0,1-2.94,1.56,12.22,12.22,0,0,1-3.64.53,13.36,13.36,0,0,1-2.53-.23,15.06,15.06,0,0,1-2.08-.57,10.23,10.23,0,0,1-1.53-.69,3.86,3.86,0,0,1-.86-.61,1.49,1.49,0,0,1-.36-.64,3.66,3.66,0,0,1-.12-1,5.3,5.3,0,0,1,.05-.77,1.75,1.75,0,0,1,.12-.49.52.52,0,0,1,.21-.26.58.58,0,0,1,.3-.08,1.74,1.74,0,0,1,.83.36,11.88,11.88,0,0,0,1.37.78,13.12,13.12,0,0,0,2,.78,9.08,9.08,0,0,0,2.74.37,7,7,0,0,0,2.15-.31,5,5,0,0,0,1.68-.9,3.75,3.75,0,0,0,1.08-1.41,4.65,4.65,0,0,0,.38-1.91,3.61,3.61,0,0,0-.53-2,5.52,5.52,0,0,0-1.38-1.44,12.26,12.26,0,0,0-2-1.13l-2.25-1.05a24.17,24.17,0,0,1-2.25-1.19,9.16,9.16,0,0,1-1.95-1.53,7.13,7.13,0,0,1-1.4-2.07,6.82,6.82,0,0,1-.53-2.84,7,7,0,0,1,.62-3,6.2,6.2,0,0,1,1.72-2.23,7.79,7.79,0,0,1,2.62-1.38,11.23,11.23,0,0,1,3.29-.47,10.15,10.15,0,0,1,1.81.16A11.22,11.22,0,0,1,394,336a9,9,0,0,1,1.43.59,3.55,3.55,0,0,1,.83.52,1.56,1.56,0,0,1,.27.32,1.21,1.21,0,0,1,.1.29,2.34,2.34,0,0,1,.06.43,6.13,6.13,0,0,1,0,.65,6.59,6.59,0,0,1,0,.67,2.82,2.82,0,0,1-.09.5.56.56,0,0,1-.18.29.41.41,0,0,1-.26.09,1.61,1.61,0,0,1-.73-.29q-.5-.3-1.2-.66a10.08,10.08,0,0,0-1.69-.67,7.22,7.22,0,0,0-2.2-.31,5.62,5.62,0,0,0-2,.31,4,4,0,0,0-1.39.81,3.3,3.3,0,0,0-.82,1.19,4,4,0,0,0-.27,1.47,3.51,3.51,0,0,0,.52,1.95,5.49,5.49,0,0,0,1.4,1.45,12.12,12.12,0,0,0,2,1.16l2.26,1.06c.77.36,1.53.75,2.27,1.17a9.64,9.64,0,0,1,2,1.52,6.93,6.93,0,0,1,1.41,2A6.74,6.74,0,0,1,398.22,355.33Z" transform="translate(-114.92 -166.6)"/><path class="cls-3" d="M420.12,337.33a4.68,4.68,0,0,1-.05.7,1.39,1.39,0,0,1-.13.47.66.66,0,0,1-.23.26.55.55,0,0,1-.31.08h-7.64V362.4a.61.61,0,0,1-.08.3.63.63,0,0,1-.3.2,2.7,2.7,0,0,1-.55.12,5.57,5.57,0,0,1-.88.05,5.45,5.45,0,0,1-.86-.05,2.67,2.67,0,0,1-.56-.12.63.63,0,0,1-.3-.2.61.61,0,0,1-.08-.3V338.84h-7.64a.53.53,0,0,1-.31-.08.58.58,0,0,1-.22-.26,2.69,2.69,0,0,1-.14-.47,4.68,4.68,0,0,1,0-.7,4.79,4.79,0,0,1,0-.7,2.71,2.71,0,0,1,.14-.49.64.64,0,0,1,.22-.28.62.62,0,0,1,.31-.08H419.4a.65.65,0,0,1,.31.08.74.74,0,0,1,.23.28,1.44,1.44,0,0,1,.13.49A4.79,4.79,0,0,1,420.12,337.33Z" transform="translate(-114.92 -166.6)"/><path class="cls-3" d="M442.16,362.4a.73.73,0,0,1-.06.3.51.51,0,0,1-.27.21,2.87,2.87,0,0,1-.59.12,9.14,9.14,0,0,1-1,0,7.31,7.31,0,0,1-.89,0,2.21,2.21,0,0,1-.56-.13.72.72,0,0,1-.32-.27,1.37,1.37,0,0,1-.2-.42l-2.5-6.4c-.3-.73-.6-1.4-.92-2a6.27,6.27,0,0,0-1.12-1.57,4.64,4.64,0,0,0-1.53-1,5.62,5.62,0,0,0-2.12-.37h-2.42V362.4a.53.53,0,0,1-.09.3.63.63,0,0,1-.3.2,2.44,2.44,0,0,1-.54.12,7.59,7.59,0,0,1-1.74,0,2.82,2.82,0,0,1-.56-.12.55.55,0,0,1-.29-.2.53.53,0,0,1-.09-.3V337.25a1.38,1.38,0,0,1,.43-1.15,1.53,1.53,0,0,1,.92-.32h5.77c.69,0,1.26,0,1.71.05l1.23.12a10.31,10.31,0,0,1,2.78.86,6.6,6.6,0,0,1,2,1.49,6.19,6.19,0,0,1,1.23,2.07,8.45,8.45,0,0,1,0,5,6.08,6.08,0,0,1-1.06,1.92,7,7,0,0,1-1.66,1.43,10.78,10.78,0,0,1-2.16,1,5.34,5.34,0,0,1,1.21.75,5.86,5.86,0,0,1,1,1.08,9.46,9.46,0,0,1,.89,1.45c.28.54.56,1.16.84,1.85l2.44,6c.2.5.32.86.38,1.06A2.17,2.17,0,0,1,442.16,362.4Zm-5.44-19.08a4.81,4.81,0,0,0-.71-2.7,4.05,4.05,0,0,0-2.39-1.59,8.83,8.83,0,0,0-1.19-.21c-.44,0-1-.06-1.73-.06h-3.05v9.16h3.53a7.87,7.87,0,0,0,2.47-.35,4.76,4.76,0,0,0,1.73-1,3.79,3.79,0,0,0,1-1.46A4.94,4.94,0,0,0,436.72,343.32Z" transform="translate(-114.92 -166.6)"/><path class="cls-3" d="M467.82,352.91a12.42,12.42,0,0,1-.73,4.42,9.07,9.07,0,0,1-2.06,3.29,8.79,8.79,0,0,1-3.28,2,12.76,12.76,0,0,1-4.39.7,12.35,12.35,0,0,1-4.09-.65,8.84,8.84,0,0,1-3.17-1.92,8.5,8.5,0,0,1-2-3.19,12.67,12.67,0,0,1-.71-4.41V336.33a.58.58,0,0,1,.08-.3.63.63,0,0,1,.3-.2,2.75,2.75,0,0,1,.54-.12,5.27,5.27,0,0,1,.88-.06,5.17,5.17,0,0,1,.86.06,2.53,2.53,0,0,1,.56.12.56.56,0,0,1,.28.2.51.51,0,0,1,.09.3v16.41a10.56,10.56,0,0,0,.46,3.3,6.21,6.21,0,0,0,1.33,2.34,5.64,5.64,0,0,0,2.1,1.41,7.76,7.76,0,0,0,2.76.47,7.92,7.92,0,0,0,2.81-.46,5.33,5.33,0,0,0,2.08-1.39,6.24,6.24,0,0,0,1.3-2.29,10.19,10.19,0,0,0,.45-3.19v-16.6a.58.58,0,0,1,.08-.3.63.63,0,0,1,.3-.2,2.7,2.7,0,0,1,.55-.12,5.22,5.22,0,0,1,.87-.06,5,5,0,0,1,.85.06,2.42,2.42,0,0,1,.55.12.65.65,0,0,1,.29.2.45.45,0,0,1,.1.3Z" transform="translate(-114.92 -166.6)"/><path class="cls-3" d="M492.7,362.36a.67.67,0,0,1-.07.31.57.57,0,0,1-.29.22,2.74,2.74,0,0,1-.56.13,6,6,0,0,1-.93.05,9.43,9.43,0,0,1-1.19-.06,1.59,1.59,0,0,1-.7-.23,1.71,1.71,0,0,1-.38-.38l-10-13.58V362.4a.63.63,0,0,1-.08.29.58.58,0,0,1-.3.21,2.7,2.7,0,0,1-.55.12,5.44,5.44,0,0,1-.87.05,5.51,5.51,0,0,1-.87-.05,2.82,2.82,0,0,1-.56-.12.58.58,0,0,1-.3-.21.63.63,0,0,1-.08-.29V336.33a.58.58,0,0,1,.08-.3.63.63,0,0,1,.3-.2,2.82,2.82,0,0,1,.56-.12,5.39,5.39,0,0,1,.87-.06,5.3,5.3,0,0,1,.87.06,2.7,2.7,0,0,1,.55.12.63.63,0,0,1,.3.2.58.58,0,0,1,.08.3V348.4l9.62-12.07a1.12,1.12,0,0,1,.29-.32,1.42,1.42,0,0,1,.41-.2,2.83,2.83,0,0,1,.59-.11,7,7,0,0,1,.89-.05,5.18,5.18,0,0,1,.88.06,2.51,2.51,0,0,1,.54.13.61.61,0,0,1,.27.21.55.55,0,0,1,.07.28,1.19,1.19,0,0,1-.13.54,5.8,5.8,0,0,1-.52.76l-9,10.77,9.7,12.89a5,5,0,0,1,.43.75A.93.93,0,0,1,492.7,362.36Z" transform="translate(-114.92 -166.6)"/><path class="cls-3" d="M513.82,359.11c0,.22,0,.42,0,.58a2.39,2.39,0,0,1-.07.44,1.51,1.51,0,0,1-.14.34,1.89,1.89,0,0,1-.29.36,6.8,6.8,0,0,1-.88.64,11.24,11.24,0,0,1-1.67.84,14.5,14.5,0,0,1-2.29.69,13.18,13.18,0,0,1-2.83.28,12.32,12.32,0,0,1-4.77-.88,9.66,9.66,0,0,1-3.64-2.6,12,12,0,0,1-2.31-4.25,21.48,21.48,0,0,1,.07-11.86,13.13,13.13,0,0,1,2.44-4.48,10.49,10.49,0,0,1,3.77-2.8,12,12,0,0,1,4.86-1,12.26,12.26,0,0,1,2.29.22,15.76,15.76,0,0,1,2.06.56,8.71,8.71,0,0,1,1.68.78,5.52,5.52,0,0,1,1,.72,2,2,0,0,1,.36.43,1.22,1.22,0,0,1,.14.35,2.69,2.69,0,0,1,.08.47,4.11,4.11,0,0,1,0,.65,4.63,4.63,0,0,1-.05.71,1.93,1.93,0,0,1-.12.5.86.86,0,0,1-.2.29.43.43,0,0,1-.29.1,1.61,1.61,0,0,1-.82-.41,12.82,12.82,0,0,0-1.36-.9,11.45,11.45,0,0,0-2-.91,8.91,8.91,0,0,0-2.86-.41,7.33,7.33,0,0,0-3.3.73,7,7,0,0,0-2.55,2.13,10.4,10.4,0,0,0-1.63,3.43,18.85,18.85,0,0,0,0,9.2,9.29,9.29,0,0,0,1.6,3.31,6.65,6.65,0,0,0,2.57,2,8.22,8.22,0,0,0,3.44.68,8.91,8.91,0,0,0,2.83-.4,10.62,10.62,0,0,0,2.07-.89c.57-.33,1-.63,1.41-.89a1.62,1.62,0,0,1,.86-.4.53.53,0,0,1,.26.06.48.48,0,0,1,.16.24,1.82,1.82,0,0,1,.1.5C513.81,358.52,513.82,358.78,513.82,359.11Z" transform="translate(-114.92 -166.6)"/><path class="cls-3" d="M533.73,361.46a4.23,4.23,0,0,1-.05.66,1.19,1.19,0,0,1-.14.47.6.6,0,0,1-.25.27.53.53,0,0,1-.3.09H520a1.48,1.48,0,0,1-.91-.33,1.33,1.33,0,0,1-.43-1.14V337.25a1.35,1.35,0,0,1,.43-1.15,1.53,1.53,0,0,1,.91-.32h12.89a.62.62,0,0,1,.31.08.64.64,0,0,1,.22.28,2.08,2.08,0,0,1,.13.47,3.44,3.44,0,0,1,.06.7,3.23,3.23,0,0,1-.06.66,2.08,2.08,0,0,1-.13.47.71.71,0,0,1-.22.26.62.62,0,0,1-.31.08H522.22v8.53h9.11a.59.59,0,0,1,.31.09.84.84,0,0,1,.23.26,1.32,1.32,0,0,1,.13.46,4.68,4.68,0,0,1,0,.7,4,4,0,0,1,0,.65,1.21,1.21,0,0,1-.13.44.56.56,0,0,1-.54.31h-9.11V360H533a.52.52,0,0,1,.3.08.7.7,0,0,1,.25.26,1.19,1.19,0,0,1,.14.46A4.63,4.63,0,0,1,533.73,361.46Z" transform="translate(-114.92 -166.6)"/><path class="cls-3" d="M543.78,360a10.87,10.87,0,0,1-.06,1.19,5.36,5.36,0,0,1-.21,1,6.45,6.45,0,0,1-.39,1,9.35,9.35,0,0,1-.6,1l-2.87,4.33a1.14,1.14,0,0,1-.24.25,2.17,2.17,0,0,1-.34.19,1.93,1.93,0,0,1-.46.12,6.12,6.12,0,0,1-.66,0,5,5,0,0,1-.6,0,1,1,0,0,1-.35-.11.23.23,0,0,1-.11-.2.49.49,0,0,1,.07-.29l2.79-5.78V360a2.82,2.82,0,0,1,.12-.91,1,1,0,0,1,.36-.5,1.62,1.62,0,0,1,.63-.23,6.12,6.12,0,0,1,.93-.06,5.8,5.8,0,0,1,.9.06,1.52,1.52,0,0,1,.62.23,1,1,0,0,1,.36.5A3.18,3.18,0,0,1,543.78,360Z" transform="translate(-114.92 -166.6)"/><path class="cls-3" d="M563.67,362.4a.53.53,0,0,1-.09.3.55.55,0,0,1-.29.2,2.82,2.82,0,0,1-.56.12,5.36,5.36,0,0,1-.87.05A5.45,5.45,0,0,1,561,363a2.78,2.78,0,0,1-.57-.12.6.6,0,0,1-.29-.2.52.52,0,0,1-.08-.3V336.33a.51.51,0,0,1,.09-.3.67.67,0,0,1,.31-.2,3.12,3.12,0,0,1,.57-.12,5,5,0,0,1,.83-.06,5.22,5.22,0,0,1,.87.06,2.82,2.82,0,0,1,.56.12.55.55,0,0,1,.29.2.51.51,0,0,1,.09.3Z" transform="translate(-114.92 -166.6)"/><path class="cls-3" d="M591.42,361.46a1.53,1.53,0,0,1-.14.71,1.19,1.19,0,0,1-.37.48,1.41,1.41,0,0,1-.51.28,2.16,2.16,0,0,1-.56.08h-1.2a4.07,4.07,0,0,1-1-.11,2.33,2.33,0,0,1-.81-.42,4.83,4.83,0,0,1-.76-.83,10.71,10.71,0,0,1-.8-1.35L577,344.85c-.44-.8-.87-1.63-1.31-2.51s-.85-1.72-1.23-2.55h0q0,1.51.06,3.09c0,1.05,0,2.09,0,3.12v16.4a.55.55,0,0,1-.09.29.58.58,0,0,1-.3.21,2.7,2.7,0,0,1-.55.12,5.42,5.42,0,0,1-.88.05,5.36,5.36,0,0,1-.87-.05,2.44,2.44,0,0,1-.54-.12.52.52,0,0,1-.38-.5V337.33a1.37,1.37,0,0,1,.48-1.19,1.66,1.66,0,0,1,1-.36h1.77a4.45,4.45,0,0,1,1.05.1,2.12,2.12,0,0,1,.76.35,3,3,0,0,1,.65.67,9.5,9.5,0,0,1,.66,1.08l6.37,11.93q.6,1.09,1.14,2.13c.37.69.72,1.38,1.06,2s.67,1.33,1,2,.66,1.31,1,2h0c0-1.11,0-2.26-.06-3.46s0-2.35,0-3.45V336.39a.44.44,0,0,1,.09-.27.74.74,0,0,1,.3-.23,2.23,2.23,0,0,1,.55-.13,7.38,7.38,0,0,1,.9,0,6.74,6.74,0,0,1,.84,0,2.11,2.11,0,0,1,.56.13.67.67,0,0,1,.28.23.44.44,0,0,1,.09.27Z" transform="translate(-114.92 -166.6)"/><path class="cls-3" d="M615.67,337.33a4.81,4.81,0,0,1,0,.7,1.66,1.66,0,0,1-.13.47.68.68,0,0,1-.24.26.52.52,0,0,1-.3.08h-7.64V362.4a.53.53,0,0,1-.09.3.55.55,0,0,1-.29.2,2.82,2.82,0,0,1-.56.12,7.51,7.51,0,0,1-1.73,0,2.78,2.78,0,0,1-.57-.12.6.6,0,0,1-.29-.2.52.52,0,0,1-.08-.3V338.84h-7.65a.54.54,0,0,1-.52-.34,2,2,0,0,1-.14-.47,4.68,4.68,0,0,1,0-.7,4.79,4.79,0,0,1,0-.7,2.09,2.09,0,0,1,.14-.49.58.58,0,0,1,.22-.28.61.61,0,0,1,.3-.08H615a.61.61,0,0,1,.3.08.75.75,0,0,1,.24.28,1.72,1.72,0,0,1,.13.49A4.9,4.9,0,0,1,615.67,337.33Z" transform="translate(-114.92 -166.6)"/><path class="cls-3" d="M634.72,361.46a6.15,6.15,0,0,1,0,.66,1.37,1.37,0,0,1-.15.47.65.65,0,0,1-.24.27.56.56,0,0,1-.31.09h-13a1.48,1.48,0,0,1-.91-.33,1.33,1.33,0,0,1-.43-1.14V337.25a1.35,1.35,0,0,1,.43-1.15,1.53,1.53,0,0,1,.91-.32h12.9a.61.61,0,0,1,.3.08.64.64,0,0,1,.22.28,2,2,0,0,1,.14.47,4.49,4.49,0,0,1,0,.7,4.23,4.23,0,0,1,0,.66,2,2,0,0,1-.14.47.71.71,0,0,1-.22.26.61.61,0,0,1-.3.08H623.21v8.53h9.11a.54.54,0,0,1,.31.09.73.73,0,0,1,.23.26,1.57,1.57,0,0,1,.14.46,6.81,6.81,0,0,1,0,.7,5.79,5.79,0,0,1,0,.65,1.42,1.42,0,0,1-.14.44.59.59,0,0,1-.23.24.62.62,0,0,1-.31.07h-9.11V360H634a.55.55,0,0,1,.31.08.76.76,0,0,1,.24.26,1.38,1.38,0,0,1,.15.46A6.68,6.68,0,0,1,634.72,361.46Z" transform="translate(-114.92 -166.6)"/><path class="cls-3" d="M658.72,362.4a.6.6,0,0,1-.07.3.51.51,0,0,1-.27.21,2.87,2.87,0,0,1-.59.12,9.14,9.14,0,0,1-1,0,7.31,7.31,0,0,1-.89,0,2.12,2.12,0,0,1-.55-.13.8.8,0,0,1-.33-.27,1.64,1.64,0,0,1-.2-.42l-2.5-6.4c-.29-.73-.6-1.4-.91-2a6.82,6.82,0,0,0-1.12-1.57,4.79,4.79,0,0,0-1.54-1,5.55,5.55,0,0,0-2.12-.37h-2.41V362.4a.47.47,0,0,1-.1.3.65.65,0,0,1-.29.2,2.55,2.55,0,0,1-.55.12,7.59,7.59,0,0,1-1.74,0,2.82,2.82,0,0,1-.56-.12.6.6,0,0,1-.29-.2.52.52,0,0,1-.08-.3V337.25a1.35,1.35,0,0,1,.43-1.15,1.51,1.51,0,0,1,.91-.32h5.77c.69,0,1.26,0,1.72.05l1.22.12a10.5,10.5,0,0,1,2.79.86,6.55,6.55,0,0,1,2,1.49,5.87,5.87,0,0,1,1.23,2.07,7.74,7.74,0,0,1,.41,2.57,7.4,7.4,0,0,1-.37,2.44,5.89,5.89,0,0,1-1.06,1.92,6.78,6.78,0,0,1-1.66,1.43,10.28,10.28,0,0,1-2.16,1,5.4,5.4,0,0,1,1.22.75,6.61,6.61,0,0,1,1,1.08A10.31,10.31,0,0,1,655,353c.28.54.56,1.16.84,1.85l2.43,6a10.06,10.06,0,0,1,.38,1.06A1.78,1.78,0,0,1,658.72,362.4Zm-5.44-19.08a4.81,4.81,0,0,0-.72-2.7,4,4,0,0,0-2.39-1.59,8.56,8.56,0,0,0-1.19-.21c-.44,0-1-.06-1.73-.06h-3v9.16h3.53a7.8,7.8,0,0,0,2.46-.35,4.68,4.68,0,0,0,1.73-1,3.59,3.59,0,0,0,1-1.46A5,5,0,0,0,653.28,343.32Z" transform="translate(-114.92 -166.6)"/><path class="cls-3" d="M667.56,362.4a.53.53,0,0,1-.09.3.55.55,0,0,1-.29.2,2.82,2.82,0,0,1-.56.12,7.51,7.51,0,0,1-1.73,0,2.78,2.78,0,0,1-.57-.12.55.55,0,0,1-.29-.2.53.53,0,0,1-.09-.3V336.33a.51.51,0,0,1,.1-.3.67.67,0,0,1,.31-.2,3.12,3.12,0,0,1,.57-.12,5,5,0,0,1,.83-.06,5.22,5.22,0,0,1,.87.06,2.82,2.82,0,0,1,.56.12.55.55,0,0,1,.29.2.51.51,0,0,1,.09.3Z" transform="translate(-114.92 -166.6)"/><path class="cls-3" d="M689.9,361.46a4.23,4.23,0,0,1,0,.66,1.19,1.19,0,0,1-.14.47.6.6,0,0,1-.25.27.53.53,0,0,1-.3.09h-13a1.48,1.48,0,0,1-.91-.33,1.33,1.33,0,0,1-.43-1.14V337.25a1.35,1.35,0,0,1,.43-1.15,1.53,1.53,0,0,1,.91-.32H689a.62.62,0,0,1,.31.08.64.64,0,0,1,.22.28,2.08,2.08,0,0,1,.13.47,3.44,3.44,0,0,1,.06.7,3.23,3.23,0,0,1-.06.66,2.08,2.08,0,0,1-.13.47.71.71,0,0,1-.22.26.62.62,0,0,1-.31.08H678.39v8.53h9.11a.59.59,0,0,1,.31.09.84.84,0,0,1,.23.26,1.32,1.32,0,0,1,.13.46,4.68,4.68,0,0,1,.05.7,4,4,0,0,1-.05.65,1.21,1.21,0,0,1-.13.44.56.56,0,0,1-.54.31h-9.11V360h10.77a.52.52,0,0,1,.3.08.7.7,0,0,1,.25.26,1.19,1.19,0,0,1,.14.46A4.63,4.63,0,0,1,689.9,361.46Zm-5-33.18a2.16,2.16,0,0,1,.45-.42,2.45,2.45,0,0,1,.49-.23,3.65,3.65,0,0,1,.65-.11c.26,0,.56,0,.91,0a4.12,4.12,0,0,1,1,.09,1.1,1.1,0,0,1,.51.24.32.32,0,0,1,.09.34,1,1,0,0,1-.24.4L684,333a2,2,0,0,1-.38.32,1.72,1.72,0,0,1-.41.19,2.71,2.71,0,0,1-.54.11c-.2,0-.45,0-.74,0a4.77,4.77,0,0,1-.76-.05.71.71,0,0,1-.38-.17.28.28,0,0,1-.06-.28,1,1,0,0,1,.23-.4Z" transform="translate(-114.92 -166.6)"/><path class="cls-3" d="M713.89,362.4a.73.73,0,0,1-.06.3.51.51,0,0,1-.27.21,2.87,2.87,0,0,1-.59.12,9.14,9.14,0,0,1-1,0,7.31,7.31,0,0,1-.89,0,2.21,2.21,0,0,1-.56-.13.72.72,0,0,1-.32-.27,1.37,1.37,0,0,1-.2-.42l-2.5-6.4c-.29-.73-.6-1.4-.91-2a6.57,6.57,0,0,0-1.13-1.57,4.64,4.64,0,0,0-1.53-1,5.59,5.59,0,0,0-2.12-.37h-2.41V362.4a.54.54,0,0,1-.1.3.65.65,0,0,1-.29.2,2.7,2.7,0,0,1-.55.12,7.59,7.59,0,0,1-1.74,0,2.82,2.82,0,0,1-.56-.12.55.55,0,0,1-.29-.2.53.53,0,0,1-.09-.3V337.25a1.35,1.35,0,0,1,.44-1.15,1.51,1.51,0,0,1,.91-.32h5.77c.69,0,1.26,0,1.71.05l1.23.12a10.31,10.31,0,0,1,2.78.86,6.6,6.6,0,0,1,2,1.49,6,6,0,0,1,1.23,2.07,8.25,8.25,0,0,1,0,5,5.89,5.89,0,0,1-1.06,1.92,7,7,0,0,1-1.66,1.43,10.28,10.28,0,0,1-2.16,1,5.4,5.4,0,0,1,1.22.75,6.17,6.17,0,0,1,1,1.08,9.47,9.47,0,0,1,.9,1.45c.28.54.56,1.16.84,1.85l2.43,6c.2.5.32.86.38,1.06A1.69,1.69,0,0,1,713.89,362.4Zm-5.43-19.08a4.81,4.81,0,0,0-.72-2.7,4,4,0,0,0-2.39-1.59,8.83,8.83,0,0,0-1.19-.21c-.44,0-1-.06-1.73-.06h-3v9.16h3.52a7.82,7.82,0,0,0,2.47-.35,4.76,4.76,0,0,0,1.73-1,3.79,3.79,0,0,0,1-1.46A5,5,0,0,0,708.46,343.32Z" transform="translate(-114.92 -166.6)"/><path class="cls-3" d="M727.14,352.39v10a.61.61,0,0,1-.08.3.65.65,0,0,1-.29.2,2.78,2.78,0,0,1-.57.12,5.25,5.25,0,0,1-.85.05,5.36,5.36,0,0,1-.87-.05,2.82,2.82,0,0,1-.56-.12.62.62,0,0,1-.31-.2.61.61,0,0,1-.08-.3v-10l-7.68-15.33a3.29,3.29,0,0,1-.29-.76.43.43,0,0,1,.11-.42,1,1,0,0,1,.56-.18,10.52,10.52,0,0,1,1.11-.05,8.75,8.75,0,0,1,1,.05,2.68,2.68,0,0,1,.62.11.74.74,0,0,1,.35.21,1.62,1.62,0,0,1,.22.35l3.76,7.81c.35.74.7,1.52,1,2.33l1.07,2.45h0c.32-.79.65-1.59,1-2.38s.69-1.57,1-2.34l3.78-7.85a1,1,0,0,1,.18-.36.65.65,0,0,1,.31-.22,2.12,2.12,0,0,1,.56-.11,7.21,7.21,0,0,1,.9-.05,9.22,9.22,0,0,1,1.19.06,1.06,1.06,0,0,1,.59.2.4.4,0,0,1,.12.42,3.55,3.55,0,0,1-.28.73Z" transform="translate(-114.92 -166.6)"/><path class="cls-1" d="M190.32,169.1v11.79c0,3.22,5,3.22,5,0V169.1c0-3.22-5-3.22-5,0Z" transform="translate(-114.92 -166.6)"/><path class="cls-1" d="M192.82,166.6H169.15c-3.21,0-3.22,5,0,5h23.67c3.21,0,3.22-5,0-5Z" transform="translate(-114.92 -166.6)"/><path class="cls-1" d="M166.65,169.47V180.7c0,3.21,5,3.22,5,0V169.47c0-3.21-5-3.22-5,0Z" transform="translate(-114.92 -166.6)"/><path class="cls-1" d="M169.15,178.2H137.82c-3.22,0-3.23,5,0,5h31.33c3.22,0,3.23-5,0-5Z" transform="translate(-114.92 -166.6)"/><path class="cls-1" d="M736.66,318.7H142.59c-8,0-16.21-.45-24.23,0-.34,0-.69,0-1,0-3.21,0-3.22,5,0,5H711.4c8,0,16.21.45,24.23,0,.34,0,.69,0,1,0,3.22,0,3.22-5,0-5Z" transform="translate(-114.92 -166.6)"/></svg>